<svg xmlns="http://www.w3.org/2000/svg" xmlns:xlink="http://www.w3.org/1999/xlink" xmlns:lucid="lucid" width="4802" height="2782"><g transform="translate(4661 1781)" lucid:page-tab-id="0_0"><path d="M-4660-1774a6 6 0 0 1 6-6H134a6 6 0 0 1 6 6V994a6 6 0 0 1-6 6h-4788a6 6 0 0 1-6-6z" stroke="#3a414a" stroke-width="2" fill="#edf5ff"/><path d="M-4120-1154a6 6 0 0 1 6-6h3288a6 6 0 0 1 6 6v888a6 6 0 0 1-6 6h-3288a6 6 0 0 1-6-6z" stroke="#000" stroke-width="2" fill="#edf5ff"/><path d="M-4020-1074a6 6 0 0 1 6-6h3128a6 6 0 0 1 6 6v188a6 6 0 0 1-6 6h-3128a6 6 0 0 1-6-6z" stroke="#3a414a" stroke-width="2" fill="#fff"/><use xlink:href="#a" transform="matrix(1,0,0,1,-4015,-1075) translate(566.640625 133.02083333333334)"/><use xlink:href="#b" transform="matrix(1,0,0,1,-4015,-1075) translate(816.6927083333334 133.02083333333334)"/><use xlink:href="#c" transform="matrix(1,0,0,1,-4015,-1075) translate(895.7552083333334 133.02083333333334)"/><use xlink:href="#d" transform="matrix(1,0,0,1,-4015,-1075) translate(1289.8697916666667 133.02083333333334)"/><use xlink:href="#e" transform="matrix(1,0,0,1,-4015,-1075) translate(1819.0885416666667 133.02083333333334)"/><path d="M-4400-1714a6 6 0 0 1 6-6h3788a6 6 0 0 1 6 6v268a6 6 0 0 1-6 6h-3788a6 6 0 0 1-6-6z" stroke="#1071e5" stroke-width="2" fill="#fff"/><use xlink:href="#f" transform="matrix(1,0,0,1,-4395,-1715) translate(1381.3802083333333 175.05208333333334)"/><use xlink:href="#g" transform="matrix(1,0,0,1,-4395,-1715) translate(1649.4010416666665 175.05208333333334)"/><use xlink:href="#h" transform="matrix(1,0,0,1,-4395,-1715) translate(2129.765625 175.05208333333334)"/><path d="M-4040-494a6 6 0 0 1 6-6h3148a6 6 0 0 1 6 6v188a6 6 0 0 1-6 6h-3148a6 6 0 0 1-6-6z" stroke="#3a414a" stroke-width="2" fill="#fff"/><use xlink:href="#i" transform="matrix(1,0,0,1,-4035,-495) translate(1150.1302083333335 133.02083333333334)"/><use xlink:href="#h" transform="matrix(1,0,0,1,-4035,-495) translate(1721.015625 133.02083333333334)"/><path d="M-4020-794a6 6 0 0 1 6-6h3128a6 6 0 0 1 6 6v208a6 6 0 0 1-6 6h-3128a6 6 0 0 1-6-6z" stroke="#3a414a" stroke-width="2" fill="#fff"/><use xlink:href="#j" transform="matrix(1,0,0,1,-4015,-795) translate(1200.46875 142.70833333333334)"/><use xlink:href="#k" transform="matrix(1,0,0,1,-4015,-795) translate(1230.46875 142.70833333333334)"/><use xlink:href="#l" transform="matrix(1,0,0,1,-4015,-795) translate(1429.1145833333333 142.70833333333334)"/><path d="M-4400 6a6 6 0 0 1 6-6h3788a6 6 0 0 1 6 6v308a6 6 0 0 1-6 6h-3788a6 6 0 0 1-6-6z" stroke="#008573" stroke-width="2" fill="#b8f5ed"/><g><use xlink:href="#m" transform="matrix(1,0,0,1,-4395,5) translate(1104.4010416666665 195.36458333333334)"/><use xlink:href="#n" transform="matrix(1,0,0,1,-4395,5) translate(1699.3489583333333 195.36458333333334)"/><use xlink:href="#o" transform="matrix(1,0,0,1,-4395,5) translate(1767.7864583333333 195.36458333333334)"/><use xlink:href="#h" transform="matrix(1,0,0,1,-4395,5) translate(2406.7447916666665 195.36458333333334)"/></g><path d="M-4400 566a6 6 0 0 1 6-6h3788a6 6 0 0 1 6 6v308a6 6 0 0 1-6 6h-3788a6 6 0 0 1-6-6z" stroke="#cc4e00" stroke-width="2" fill="#fff"/><g><use xlink:href="#p" transform="matrix(1,0,0,1,-4395,565) translate(1624.4791666666665 195.36458333333334)"/><use xlink:href="#h" transform="matrix(1,0,0,1,-4395,565) translate(1886.6666666666665 195.36458333333334)"/></g><g><path d="M-126-1620a6 6 0 0 1 6 6V814a6 6 0 0 1-6 6h-288a6 6 0 0 1-6-6v-2428a6 6 0 0 1 6-6z" stroke="#3a414a" stroke-width="2" fill="#fff"/></g><g><use xlink:href="#q" transform="matrix(6.123233995736766e-17,1,-1,6.123233995736766e-17,-125.00000000000023,-1614.9999999999995) translate(829.4010416666666 184.89583333333334)"/><use xlink:href="#h" transform="matrix(6.123233995736766e-17,1,-1,6.123233995736766e-17,-125.00000000000023,-1614.9999999999995) translate(1321.7447916666665 184.89583333333334)"/></g><g><path d="M-2621.67-1151.5a6 6 0 0 1-8.48-.05l-124.9-126.26a2.48 2.48 0 0 1 1.77-4.24l55.03.3a6 6 0 0 0 6.03-5.97l.07-11.87a6 6 0 0 0-5.97-6.04l-55.03-.3a2.48 2.48 0 0 1-1.74-4.25l126.27-124.9a6 6 0 0 1 8.48.03l124.9 126.26a2.48 2.48 0 0 1-1.77 4.23l-55.03-.3a6 6 0 0 0-6.03 5.98l-.07 11.86a6 6 0 0 0 5.97 6.04l55.03.3a2.48 2.48 0 0 1 1.74 4.25z" stroke="#1071e5" stroke-width="2" fill="#fff"/></g><g><path d="M-2605.6 1.36a6 6 0 0 1-8.5.1l-112.26-109.77a2.48 2.48 0 0 1 1.7-4.27l47.76-.54a6 6 0 0 0 5.94-6.08l-.4-34a6 6 0 0 0-6.05-5.93l-47.77.53a2.48 2.48 0 0 1-1.8-4.23l109.77-112.27a6 6 0 0 1 8.48-.1l112.27 109.78a2.48 2.48 0 0 1-1.7 4.27l-47.76.54a6 6 0 0 0-5.94 6.08l.38 34a6 6 0 0 0 6.07 5.93l47.76-.53a2.48 2.48 0 0 1 1.8 4.23z" stroke="#008573" stroke-width="2" fill="#fff"/></g><g><path d="M-2605.8 545.76a6 6 0 0 1-8.5.1l-112.46-109.97a2.48 2.48 0 0 1 1.7-4.27l48.86-.55a5 5 0 0 0 4.94-5.06 5 5 0 0 0-5.05-4.94l-48.86.55a2.48 2.48 0 0 1-1.8-4.23L-2617 304.93a6 6 0 0 1 8.48-.1l112.47 109.97a2.48 2.48 0 0 1-1.7 4.27l-48.86.55a5 5 0 0 0-4.95 5.05 5 5 0 0 0 5.05 4.95l48.86-.55a2.48 2.48 0 0 1 1.8 4.22z" stroke="#cc4e00" stroke-width="2" fill="#fff"/></g><defs><path d="M180 0v-1490h224l606 953c40 63 108 177 176 312-27-437-7-821-13-1265h190V0h-226C860-448 622-778 356-1262c27 476 11 792 15 1262H180" id="r"/><path d="M180 0v-1490h190v1322h690V0H180" id="s"/><path d="M763 24c-353 0-583-224-583-531v-983h190v968c0 214 149 370 393 370 243 0 391-156 391-370v-968h190v983c0 307-230 531-581 531" id="t"/><g id="a"><use transform="matrix(0.052083333333333336,0,0,0.052083333333333336,0,0)" xlink:href="#r"/><use transform="matrix(0.052083333333333336,0,0,0.052083333333333336,80.36458333333334,0)" xlink:href="#s"/><use transform="matrix(0.052083333333333336,0,0,0.052083333333333336,140.67708333333334,0)" xlink:href="#t"/></g><path d="M798-719v166H144v-166h654" id="u"/><use transform="matrix(0.052083333333333336,0,0,0.052083333333333336,0,0)" xlink:href="#u" id="b"/><path d="M471 26C259 26 90-98 90-318c0-256 228-303 435-329 202-27 287-16 287-108 0-139-79-219-234-219-161 0-248 86-283 164l-173-57c86-203 278-265 451-265 150 0 419 46 419 395V0H815v-152h-12C765-73 660 26 471 26zm31-159c199 0 310-134 310-271v-155c-30 35-226 55-295 64-131 17-246 59-246 186 0 116 97 176 231 176" id="v"/><path d="M598-1118v154H368v674c0 100 37 144 132 144 23 0 62-6 92-12L629-6c-37 13-88 20-134 20-193 0-307-107-307-290v-688H20v-154h168v-266h180v266h230" id="w"/><path d="M537 14c-226 0-379-139-379-422v-710h180v695c0 172 97 275 253 275 160 0 281-109 281-300v-670h181V0H879v-209C806-46 684 14 537 14" id="x"/><path d="M158 0v-1118h174v172h12c41-113 157-188 290-188 26 0 70 2 91 3v181c-11-2-60-10-108-10-161 0-279 109-279 260V0H158" id="y"/><path d="M338-1490V0H158v-1490h180" id="z"/><g id="c"><use transform="matrix(0.052083333333333336,0,0,0.052083333333333336,0,0)" xlink:href="#r"/><use transform="matrix(0.052083333333333336,0,0,0.052083333333333336,80.36458333333334,0)" xlink:href="#v"/><use transform="matrix(0.052083333333333336,0,0,0.052083333333333336,140.26041666666669,0)" xlink:href="#w"/><use transform="matrix(0.052083333333333336,0,0,0.052083333333333336,175.15625000000003,0)" xlink:href="#x"/><use transform="matrix(0.052083333333333336,0,0,0.052083333333333336,238.22916666666669,0)" xlink:href="#y"/><use transform="matrix(0.052083333333333336,0,0,0.052083333333333336,278.3854166666667,0)" xlink:href="#v"/><use transform="matrix(0.052083333333333336,0,0,0.052083333333333336,338.28125,0)" xlink:href="#z"/></g><path d="M338-670V0H158v-1118h173l1 207c72-158 192-221 342-221 226 0 378 139 378 422V0H872v-695c0-172-96-275-252-275-161 0-282 109-282 300" id="A"/><path d="M611 442c-248 0-391-105-460-228l146-94c47 65 117 165 314 165 178 0 307-82 307-266v-224h-17C863-141 792-18 576-18c-268 0-472-195-472-546 0-346 197-568 476-568 216 0 288 133 326 193h17v-179h175V29c0 289-215 413-487 413zm-5-620c203 0 314-146 314-390 0-237-108-403-314-403-213 0-319 180-319 403 0 230 109 390 319 390" id="B"/><path d="M628 24c-324 0-524-230-524-574 0-343 198-582 503-582 237 0 487 146 487 559v75H286c9 234 145 362 343 362 132 0 231-58 273-172l174 48C1024-91 857 24 628 24zM287-650h624c-17-190-120-322-304-322-192 0-309 151-320 322" id="C"/><g id="d"><use transform="matrix(0.052083333333333336,0,0,0.052083333333333336,0,0)" xlink:href="#s"/><use transform="matrix(0.052083333333333336,0,0,0.052083333333333336,60.3125,0)" xlink:href="#v"/><use transform="matrix(0.052083333333333336,0,0,0.052083333333333336,120.20833333333334,0)" xlink:href="#A"/><use transform="matrix(0.052083333333333336,0,0,0.052083333333333336,183.22916666666669,0)" xlink:href="#B"/><use transform="matrix(0.052083333333333336,0,0,0.052083333333333336,248.6458333333334,0)" xlink:href="#x"/><use transform="matrix(0.052083333333333336,0,0,0.052083333333333336,311.71875000000006,0)" xlink:href="#v"/><use transform="matrix(0.052083333333333336,0,0,0.052083333333333336,371.61458333333337,0)" xlink:href="#B"/><use transform="matrix(0.052083333333333336,0,0,0.052083333333333336,437.03125,0)" xlink:href="#C"/></g><path d="M577 24c-279 0-473-224-473-580 0-354 195-576 474-576 218 0 287 134 324 193h14v-551h180V0H922v-173h-20C865-111 790 24 577 24zm27-161c203 0 314-172 314-421 0-247-108-413-314-413-212 0-317 181-317 413 0 235 108 421 317 421" id="D"/><path d="M538 24C308 24 148-78 108-271l171-41c32 123 123 178 257 178 156 0 256-77 256-169 0-77-54-128-164-154l-186-44c-203-48-300-148-300-305 0-192 176-326 414-326 230 0 351 112 402 269l-163 42c-31-80-94-158-238-158-133 0-233 69-233 162 0 83 57 129 188 160l169 40c203 48 298 149 298 302 0 196-179 339-441 339" id="E"/><path d="M158 0v-1118h180V0H158zm91-1301c-68 0-125-53-125-119s57-119 125-119c69 0 126 53 126 119s-57 119-126 119" id="F"/><g id="e"><use transform="matrix(0.052083333333333336,0,0,0.052083333333333336,0,0)" xlink:href="#t"/><use transform="matrix(0.052083333333333336,0,0,0.052083333333333336,79.375,0)" xlink:href="#A"/><use transform="matrix(0.052083333333333336,0,0,0.052083333333333336,142.39583333333334,0)" xlink:href="#D"/><use transform="matrix(0.052083333333333336,0,0,0.052083333333333336,207.70833333333334,0)" xlink:href="#C"/><use transform="matrix(0.052083333333333336,0,0,0.052083333333333336,269.89583333333337,0)" xlink:href="#y"/><use transform="matrix(0.052083333333333336,0,0,0.052083333333333336,310.05208333333337,0)" xlink:href="#E"/><use transform="matrix(0.052083333333333336,0,0,0.052083333333333336,366.3541666666667,0)" xlink:href="#w"/><use transform="matrix(0.052083333333333336,0,0,0.052083333333333336,401.7708333333333,0)" xlink:href="#v"/><use transform="matrix(0.052083333333333336,0,0,0.052083333333333336,461.6666666666666,0)" xlink:href="#A"/><use transform="matrix(0.052083333333333336,0,0,0.052083333333333336,524.6875,0)" xlink:href="#D"/><use transform="matrix(0.052083333333333336,0,0,0.052083333333333336,590,0)" xlink:href="#F"/><use transform="matrix(0.052083333333333336,0,0,0.052083333333333336,615.8333333333334,0)" xlink:href="#A"/><use transform="matrix(0.052083333333333336,0,0,0.052083333333333336,678.8541666666667,0)" xlink:href="#B"/></g><g id="f"><use transform="matrix(0.052083333333333336,0,0,0.052083333333333336,0,0)" xlink:href="#t"/><use transform="matrix(0.052083333333333336,0,0,0.052083333333333336,79.375,0)" xlink:href="#E"/><use transform="matrix(0.052083333333333336,0,0,0.052083333333333336,135.67708333333334,0)" xlink:href="#C"/><use transform="matrix(0.052083333333333336,0,0,0.052083333333333336,197.86458333333334,0)" xlink:href="#y"/></g><path d="M370-1490V0H180v-1490h190" id="G"/><path d="M678-1118v154H420V0H240v-964H20v-154h220v-149c0-194 155-293 318-293 85 0 141 18 168 30l-50 154c-19-6-47-17-97-17-111 0-159 58-159 166v109h258" id="H"/><path d="M613 24c-304 0-509-231-509-576 0-350 205-580 509-580 216 0 392 114 453 309l-173 49c-33-115-133-197-280-197-223 0-326 196-326 419 0 220 103 415 326 415 150 0 252-85 285-206l172 49C1010-95 832 24 613 24" id="I"/><g id="g"><use transform="matrix(0.052083333333333336,0,0,0.052083333333333336,0,0)" xlink:href="#G"/><use transform="matrix(0.052083333333333336,0,0,0.052083333333333336,28.645833333333336,0)" xlink:href="#A"/><use transform="matrix(0.052083333333333336,0,0,0.052083333333333336,91.66666666666667,0)" xlink:href="#w"/><use transform="matrix(0.052083333333333336,0,0,0.052083333333333336,125.52083333333334,0)" xlink:href="#C"/><use transform="matrix(0.052083333333333336,0,0,0.052083333333333336,187.70833333333334,0)" xlink:href="#y"/><use transform="matrix(0.052083333333333336,0,0,0.052083333333333336,229.53125,0)" xlink:href="#H"/><use transform="matrix(0.052083333333333336,0,0,0.052083333333333336,267.34375,0)" xlink:href="#v"/><use transform="matrix(0.052083333333333336,0,0,0.052083333333333336,327.2395833333333,0)" xlink:href="#I"/><use transform="matrix(0.052083333333333336,0,0,0.052083333333333336,388.1770833333333,0)" xlink:href="#C"/></g><path d="M140 405l46-156c120 36 205 19 263-150l32-93L54-1118h197c107 313 237 620 324 950 87-331 219-637 326-950h196L606 167c-68 178-176 259-334 259-64 0-113-12-132-21" id="J"/><g id="h"><use transform="matrix(0.052083333333333336,0,0,0.052083333333333336,0,0)" xlink:href="#s"/><use transform="matrix(0.052083333333333336,0,0,0.052083333333333336,60.3125,0)" xlink:href="#v"/><use transform="matrix(0.052083333333333336,0,0,0.052083333333333336,118.64583333333334,0)" xlink:href="#J"/><use transform="matrix(0.052083333333333336,0,0,0.052083333333333336,176.51041666666669,0)" xlink:href="#C"/><use transform="matrix(0.052083333333333336,0,0,0.052083333333333336,238.69791666666669,0)" xlink:href="#y"/></g><path d="M613 24c-304 0-509-231-509-576 0-350 205-580 509-580 305 0 511 230 511 580 0 345-206 576-511 576zm0-161c226 0 329-195 329-415 0-222-103-419-329-419-223 0-326 196-326 419 0 220 103 415 326 415" id="K"/><g id="i"><use transform="matrix(0.052083333333333336,0,0,0.052083333333333336,0,0)" xlink:href="#G"/><use transform="matrix(0.052083333333333336,0,0,0.052083333333333336,28.645833333333336,0)" xlink:href="#A"/><use transform="matrix(0.052083333333333336,0,0,0.052083333333333336,91.66666666666667,0)" xlink:href="#w"/><use transform="matrix(0.052083333333333336,0,0,0.052083333333333336,125.52083333333334,0)" xlink:href="#C"/><use transform="matrix(0.052083333333333336,0,0,0.052083333333333336,187.70833333333334,0)" xlink:href="#B"/><use transform="matrix(0.052083333333333336,0,0,0.052083333333333336,253.125,0)" xlink:href="#y"/><use transform="matrix(0.052083333333333336,0,0,0.052083333333333336,293.28125,0)" xlink:href="#v"/><use transform="matrix(0.052083333333333336,0,0,0.052083333333333336,353.1770833333333,0)" xlink:href="#w"/><use transform="matrix(0.052083333333333336,0,0,0.052083333333333336,388.07291666666663,0)" xlink:href="#F"/><use transform="matrix(0.052083333333333336,0,0,0.052083333333333336,413.90624999999994,0)" xlink:href="#K"/><use transform="matrix(0.052083333333333336,0,0,0.052083333333333336,477.86458333333326,0)" xlink:href="#A"/></g><path d="M180 0v-1490h528c311 0 458 177 458 395 0 191-114 278-244 313v14c139 9 302 137 302 371 0 225-148 397-499 397H180zm190-168h350c232 0 321-102 321-231 0-149-120-277-311-277H370v508zm0-668h328c160 0 286-101 286-255 0-129-87-231-280-231H370v486" id="L"/><g id="k"><use transform="matrix(0.052083333333333336,0,0,0.052083333333333336,0,0)" xlink:href="#L"/><use transform="matrix(0.052083333333333336,0,0,0.052083333333333336,69.79166666666667,0)" xlink:href="#K"/><use transform="matrix(0.052083333333333336,0,0,0.052083333333333336,133.75,0)" xlink:href="#w"/></g><path d="M784 20c-382 0-662-292-662-764 0-473 280-766 662-766s660 293 660 766c0 472-278 764-660 764zm0-176c266 0 475-207 475-588 0-383-209-590-475-590-268 0-477 208-477 590 0 380 209 588 477 588" id="M"/><path d="M338-670V0H158v-1490h180v566c73-149 190-208 336-208 226 0 379 139 379 422V0H872v-695c0-172-96-275-252-275-161 0-282 109-282 300" id="N"/><g id="l"><use transform="matrix(0.052083333333333336,0,0,0.052083333333333336,0,0)" xlink:href="#M"/><use transform="matrix(0.052083333333333336,0,0,0.052083333333333336,81.5625,0)" xlink:href="#y"/><use transform="matrix(0.052083333333333336,0,0,0.052083333333333336,119.94791666666667,0)" xlink:href="#I"/><use transform="matrix(0.052083333333333336,0,0,0.052083333333333336,180.88541666666669,0)" xlink:href="#N"/><use transform="matrix(0.052083333333333336,0,0,0.052083333333333336,243.9583333333334,0)" xlink:href="#C"/><use transform="matrix(0.052083333333333336,0,0,0.052083333333333336,306.14583333333337,0)" xlink:href="#E"/><use transform="matrix(0.052083333333333336,0,0,0.052083333333333336,362.4479166666667,0)" xlink:href="#w"/><use transform="matrix(0.052083333333333336,0,0,0.052083333333333336,396.3020833333333,0)" xlink:href="#K"/><use transform="matrix(0.052083333333333336,0,0,0.052083333333333336,460.2604166666666,0)" xlink:href="#y"/></g><path d="M180 0v-1490h190c0 262 1 526-3 784 217-279 467-523 702-784h249L716-845 1319 0h-225L585-716 370-489V0H180" id="O"/><path d="M409 0L70-1118h191c89 329 165 560 243 925 75-353 154-601 240-925h192c85 325 161 564 235 922 77-354 157-598 244-922h191L1267 0h-179c-86-307-176-590-250-913C763-588 675-308 588 0H409" id="P"/><g id="m"><use transform="matrix(0.052083333333333336,0,0,0.052083333333333336,0,0)" xlink:href="#O"/><use transform="matrix(0.052083333333333336,0,0,0.052083333333333336,71.66666666666667,0)" xlink:href="#A"/><use transform="matrix(0.052083333333333336,0,0,0.052083333333333336,134.6875,0)" xlink:href="#K"/><use transform="matrix(0.052083333333333336,0,0,0.052083333333333336,196.71875,0)" xlink:href="#P"/><use transform="matrix(0.052083333333333336,0,0,0.052083333333333336,284.0104166666667,0)" xlink:href="#z"/><use transform="matrix(0.052083333333333336,0,0,0.052083333333333336,309.84375,0)" xlink:href="#C"/><use transform="matrix(0.052083333333333336,0,0,0.052083333333333336,372.03125,0)" xlink:href="#D"/><use transform="matrix(0.052083333333333336,0,0,0.052083333333333336,437.34375,0)" xlink:href="#B"/><use transform="matrix(0.052083333333333336,0,0,0.052083333333333336,502.7604166666667,0)" xlink:href="#C"/></g><path d="M692-1560L212 224H46l480-1784h166" id="Q"/><use transform="matrix(0.052083333333333336,0,0,0.052083333333333336,0,0)" xlink:href="#Q" id="n"/><g id="o"><use transform="matrix(0.052083333333333336,0,0,0.052083333333333336,0,0)" xlink:href="#G"/><use transform="matrix(0.052083333333333336,0,0,0.052083333333333336,28.645833333333336,0)" xlink:href="#A"/><use transform="matrix(0.052083333333333336,0,0,0.052083333333333336,91.66666666666667,0)" xlink:href="#w"/><use transform="matrix(0.052083333333333336,0,0,0.052083333333333336,125.52083333333334,0)" xlink:href="#C"/><use transform="matrix(0.052083333333333336,0,0,0.052083333333333336,187.70833333333334,0)" xlink:href="#z"/><use transform="matrix(0.052083333333333336,0,0,0.052083333333333336,213.54166666666669,0)" xlink:href="#z"/><use transform="matrix(0.052083333333333336,0,0,0.052083333333333336,239.375,0)" xlink:href="#F"/><use transform="matrix(0.052083333333333336,0,0,0.052083333333333336,265.20833333333337,0)" xlink:href="#B"/><use transform="matrix(0.052083333333333336,0,0,0.052083333333333336,330.62500000000006,0)" xlink:href="#C"/><use transform="matrix(0.052083333333333336,0,0,0.052083333333333336,392.81250000000006,0)" xlink:href="#A"/><use transform="matrix(0.052083333333333336,0,0,0.052083333333333336,455.83333333333337,0)" xlink:href="#I"/><use transform="matrix(0.052083333333333336,0,0,0.052083333333333336,516.7708333333334,0)" xlink:href="#C"/></g><path d="M645 0H180v-1490h484c435 0 692 280 692 742 0 466-257 748-711 748zM370-168h263c363 0 539-218 539-580 0-358-176-574-521-574H370v1154" id="R"/><g id="p"><use transform="matrix(0.052083333333333336,0,0,0.052083333333333336,0,0)" xlink:href="#R"/><use transform="matrix(0.052083333333333336,0,0,0.052083333333333336,76.97916666666667,0)" xlink:href="#v"/><use transform="matrix(0.052083333333333336,0,0,0.052083333333333336,136.875,0)" xlink:href="#w"/><use transform="matrix(0.052083333333333336,0,0,0.052083333333333336,172.29166666666669,0)" xlink:href="#v"/></g><path d="M52 0l541-1490h220L1361 0h-200l-149-416H398L254 0H52zm404-582h497c-103-290-145-390-251-756-108 377-145 460-246 756" id="S"/><g id="q"><use transform="matrix(0.052083333333333336,0,0,0.052083333333333336,0,0)" xlink:href="#S"/><use transform="matrix(0.052083333333333336,0,0,0.052083333333333336,73.59375,0)" xlink:href="#A"/><use transform="matrix(0.052083333333333336,0,0,0.052083333333333336,136.61458333333334,0)" xlink:href="#v"/><use transform="matrix(0.052083333333333336,0,0,0.052083333333333336,196.51041666666669,0)" xlink:href="#z"/><use transform="matrix(0.052083333333333336,0,0,0.052083333333333336,222.8645833333334,0)" xlink:href="#J"/><use transform="matrix(0.052083333333333336,0,0,0.052083333333333336,284.37500000000006,0)" xlink:href="#w"/><use transform="matrix(0.052083333333333336,0,0,0.052083333333333336,319.27083333333337,0)" xlink:href="#F"/><use transform="matrix(0.052083333333333336,0,0,0.052083333333333336,345.1041666666667,0)" xlink:href="#I"/><use transform="matrix(0.052083333333333336,0,0,0.052083333333333336,406.0416666666667,0)" xlink:href="#E"/></g></defs></g></svg>