<svg xmlns="http://www.w3.org/2000/svg" xmlns:xlink="http://www.w3.org/1999/xlink" xmlns:lucid="lucid" width="1846.55" height="993.61"><g transform="translate(1441.9655938525998 348.08275179010616)" lucid:page-tab-id="0_0"><path d="M-155.23-106.8H-31.2v80.53h-124.03z" fill="none"/><use xlink:href="#a" transform="matrix(1,0,0,1,-135.23039854009994,-83.78902132135619) translate(0 16.46212890625)"/><use xlink:href="#b" transform="matrix(1,0,0,1,-135.23039854009994,-83.78902132135619) translate(37.068310546875004 16.46212890625)"/><use xlink:href="#c" transform="matrix(1,0,0,1,-135.23039854009994,-83.78902132135619) translate(0 36.716875)"/><path d="M-312.73-121.74l4.37.1 6.17.38 5.62.6 5.17.75 4.8.9 4.56 1.08 4.36 1.2 4.22 1.38 4.15 1.55 4.17 1.76 4.3 2.03 4.6 2.4 5.3 3.05 7.28 4.65 24.13 16.13 5.28 3.05 4.6 2.4 4.3 2.04 4.2 1.75 4.14 1.55 4.22 1.37 4.35 1.2 4.56 1.07 4.82.92 5.17.76 5.6.58 6.18.4 4.37.08" stroke="#d916a8" stroke-width="5" stroke-linejoin="round" fill="none"/><path d="M-312.6-124.2l-.1 4.94-2.53-.05v-4.97zM-155.23-69v4.95h-2.56V-69z" stroke="#d916a8" stroke-width=".05" fill="#d916a8"/><path d="M-1114.24 114.05l-5.8.12-7.3.46-6.52.68-5.94.88-5.48 1.05-5.16 1.2-4.95 1.4-4.85 1.57-4.9 1.82-5.2 2.2-5.9 2.77-8.64 4.54-22.32 12.2-5.92 2.8-5.18 2.17-4.9 1.83-4.87 1.58-4.94 1.4-5.16 1.2-5.48 1.05-5.93.87-6.54.7-7.3.44-5.8.12" stroke="#008a0e" stroke-width="5" stroke-linejoin="round" fill="none"/><path d="M-1111.74 116.48l-2.5.05-.12-4.95 2.62-.05zM-1269.17 161.6h-2.57v-4.94h2.57z" stroke="#008a0e" stroke-width=".05" fill="#008a0e"/><path d="M-418 259.77h112.56v60.27H-418z" fill="none"/><use xlink:href="#d" transform="matrix(1,0,0,1,-398.007224711975,282.77445524114387) translate(0 16.589501953125)"/><path d="M149.75 184.26h254.83v100.77H149.75z" fill="none"/><use xlink:href="#e" transform="matrix(1,0,0,1,169.74790224114986,207.2599630536439) translate(0 16.334755859375)"/><use xlink:href="#f" transform="matrix(1,0,0,1,169.74790224114986,207.2599630536439) translate(39.978193359375005 16.334755859375)"/><use xlink:href="#g" transform="matrix(1,0,0,1,169.74790224114986,207.2599630536439) translate(0 36.589501953125)"/><use xlink:href="#h" transform="matrix(1,0,0,1,169.74790224114986,207.2599630536439) translate(16.339482421875005 36.589501953125)"/><use xlink:href="#i" transform="matrix(1,0,0,1,169.74790224114986,207.2599630536439) translate(98.143154296875 36.589501953125)"/><use xlink:href="#j" transform="matrix(1,0,0,1,169.74790224114986,207.2599630536439) translate(0 56.844248046875)"/><use xlink:href="#k" transform="matrix(1,0,0,1,169.74790224114986,207.2599630536439) translate(19.739794921875003 56.844248046875)"/><use xlink:href="#l" transform="matrix(1,0,0,1,169.74790224114986,207.2599630536439) translate(89.429853515625 56.844248046875)"/><use xlink:href="#m" transform="matrix(1,0,0,1,169.74790224114986,207.2599630536439) translate(172.034560546875 56.844248046875)"/><path d="M-1111.74 83.87H-978v60.26h-133.74z" fill="none"/><use xlink:href="#n" transform="matrix(1,0,0,1,-1091.7383379932248,106.86784391301887) translate(0.2788867187500017 16.589501953125)"/><path d="M-1279.73-71.78H-978V8.74h-301.73z" fill="none"/><use xlink:href="#o" transform="matrix(1,0,0,1,-1259.726853618225,-48.784021321356136) translate(215.057705078125 16.46212890625)"/><use xlink:href="#p" transform="matrix(1,0,0,1,-1259.726853618225,-48.784021321356136) translate(254.30025390625 16.46212890625)"/><use xlink:href="#q" transform="matrix(1,0,0,1,-1259.726853618225,-48.784021321356136) translate(0.29037109374996817 36.716875)"/><use xlink:href="#r" transform="matrix(1,0,0,1,-1259.726853618225,-48.784021321356136) translate(62.14172851562498 36.716875)"/><use xlink:href="#s" transform="matrix(1,0,0,1,-1259.726853618225,-48.784021321356136) translate(145.19599609374998 36.716875)"/><path d="M-291.5 79.05l5.82.12 7.3.45 6.52.7 5.93.86 5.5 1.04 5.15 1.2 4.95 1.4 4.85 1.57 4.9 1.82 5.2 2.18 5.9 2.8 8.65 4.53 22.33 12.2 5.92 2.8 5.18 2.17 4.9 1.83 4.86 1.58 4.95 1.4 5.17 1.2 5.5 1.04 5.92.88 6.5.68 7.3.46 5.8.12" stroke="#e81313" stroke-width="5" stroke-linejoin="round" fill="none"/><path d="M-291.37 76.57l-.1 4.95-2.52-.05v-4.95zM-134 121.65v4.95h-2.55v-4.95z" stroke="#e81313" stroke-width=".05" fill="#e81313"/><path d="M-1120.98-162.05H-978v60.27H-1121z" fill="none"/><use xlink:href="#t" transform="matrix(1,0,0,1,-1100.9829376026,-139.04876741510614) translate(0.03428710937498636 16.589501953125)"/><use xlink:href="#u" transform="matrix(1,0,0,1,-1100.9829376026,-139.04876741510614) translate(41.181337890624995 16.589501953125)"/><path d="M131.4 315.03h133.9v60.27H131.4z" fill="none"/><use xlink:href="#v" transform="matrix(1,0,0,1,151.39765810052495,338.03420133489385) translate(0 16.589501953125)"/><path d="M-302.94 289.96l4.37.1 6.17.37 5.6.6 5.18.76 4.82.9 4.56 1.07 4.35 1.22 4.23 1.36 4.16 1.54 4.16 1.76 4.3 2.02 4.6 2.42 5.3 3.05 7.28 4.65 24.13 16.12 5.28 3.06 4.6 2.4 4.3 2.04 4.2 1.75 4.15 1.55 4.2 1.37 4.37 1.2 4.55 1.07 4.82.92 5.17.75 5.62.6 6.17.38 4.36.1" stroke="#fc9432" stroke-width="5" stroke-linejoin="round" fill="none"/><path d="M-302.82 287.5l-.1 4.93-2.52-.05v-4.95zM-145.44 342.7v4.94H-148v-4.95z" stroke="#fc9432" stroke-width=".05" fill="#fc9432"/><path d="M-418 38.73h124v80.53h-124z" fill="none"/><use xlink:href="#a" transform="matrix(1,0,0,1,-398.007224711975,61.73547086614383) translate(0 16.46212890625)"/><use xlink:href="#b" transform="matrix(1,0,0,1,-398.007224711975,61.73547086614383) translate(37.068310546875004 16.46212890625)"/><use xlink:href="#c" transform="matrix(1,0,0,1,-398.007224711975,61.73547086614383) translate(0 36.716875)"/><path d="M-271.16-297.7h155" stroke="#635dff" stroke-width="5" stroke-linejoin="round" fill="none"/><path d="M-271.1-295.22h-2.56v-4.95h2.57zM-113.66-295.22h-2.56v-4.95h2.56z" stroke="#635dff" stroke-width=".05" fill="#635dff"/><path d="M-818-14.16a40 40 0 0 1 40-40h160a40 40 0 0 1 40 40v10.4a40 40 0 0 1-40 40h-160a40 40 0 0 1-40-40z" fill="#fff"/><use xlink:href="#w" transform="matrix(1,0,0,1,-813.007224711975,-49.162307454168655) translate(63.88671875 34.5625)"/><use xlink:href="#x" transform="matrix(1,0,0,1,-813.007224711975,-49.162307454168655) translate(47.0751953125 58.76171875)"/><path d="M-155.23-217.3H-43.7v80.5h-111.53z" fill="none"/><use xlink:href="#y" transform="matrix(1,0,0,1,-135.23039854009994,-194.30851350885618) translate(0 16.46212890625)"/><use xlink:href="#z" transform="matrix(1,0,0,1,-135.23039854009994,-194.30851350885618) translate(0 36.716875)"/><path d="M-134 94H27.07v60.26H-134z" fill="none"/><use xlink:href="#A" transform="matrix(1,0,0,1,-113.98661924322505,116.99521695989381) translate(0 16.589501953125)"/><path d="M-820.5-8.9h-.7l-3.03.2-2.9.3-2.8.42-2.7.5-2.63.63-2.57.7-2.52.83-2.5.93-2.45 1.05-2.47 1.16-2.46 1.3-2.5 1.43-2.5 1.6-2.6 1.8-2.65 2.02-2.76 2.28-2.9 2.62-3.12 3.05-3.38 3.6-3.8 4.4-4.5 5.7-6.05 8.36-28.07 41.48-4.5 5.7-3.8 4.4-3.4 3.6-3.1 3.05-2.9 2.6-2.76 2.3-2.66 2.02-2.57 1.8-2.53 1.6-2.48 1.43-2.47 1.3-2.46 1.14-2.48 1.03-2.48.93-2.53.82-2.55.7-2.63.63-2.7.53-2.8.4-2.9.3-3.04.2-.7.02" stroke="#008a0e" stroke-width="5" stroke-linejoin="round" fill="none"/><path d="M-818-6.48l-2.52.05-.1-4.95 2.6-.05zM-975.44 116.47H-978v-4.94h2.56z" stroke="#008a0e" stroke-width=".05" fill="#008a0e"/><path d="M-1352.72 38.73h80.98V99h-80.98z" fill="none"/><use xlink:href="#B" transform="matrix(1,0,0,1,-1332.72373838385,61.73547086614383) translate(0.024599609374988063 16.589501953125)"/><path d="M-145.44 315.03H-28.6v60.27h-116.84z" fill="none"/><use xlink:href="#C" transform="matrix(1,0,0,1,-125.43815244635016,338.03420133489385) translate(0 16.589501953125)"/><path d="M-418-337.95h144.34v80.5H-418z" fill="none"/><use xlink:href="#D" transform="matrix(1,0,0,1,-398.007224711975,-314.9553787432312) translate(0 16.46212890625)"/><use xlink:href="#E" transform="matrix(1,0,0,1,-398.007224711975,-314.9553787432312) translate(67.622080078125 16.46212890625)"/><use xlink:href="#F" transform="matrix(1,0,0,1,-398.007224711975,-314.9553787432312) translate(0 36.716875)"/><path d="M-7.75 234.65h155" stroke="#fc9432" stroke-width="5" stroke-linejoin="round" fill="none"/><path d="M-7.7 237.12h-2.55v-4.95h2.56zM149.75 237.12h-2.57v-4.95h2.57z" stroke="#fc9432" stroke-width=".05" fill="#fc9432"/><path d="M-1441.97 129h170.23v60.26h-170.23z" fill="none"/><use xlink:href="#G" transform="matrix(1,0,0,1,-1421.9655938525998,152.00021695989392) translate(0.7827441406249704 16.589501953125)"/><use xlink:href="#H" transform="matrix(1,0,0,1,-1421.9655938525998,152.00021695989392) translate(83.21580078124998 16.589501953125)"/><path d="M-134 3.73h120.96V64H-134z" fill="none"/><use xlink:href="#I" transform="matrix(1,0,0,1,-113.98661924322505,26.730470866143833) translate(0 16.589501953125)"/><path d="M-26.1 345.17h155" stroke="#fc9432" stroke-width="5" stroke-linejoin="round" fill="none"/><path d="M-26.04 347.64h-2.56v-4.95h2.56zM131.4 347.64h-2.57v-4.95h2.57z" stroke="#fc9432" stroke-width=".05" fill="#fc9432"/><path d="M-418-151.92h102.77v60.26H-418z" fill="none"/><use xlink:href="#J" transform="matrix(1,0,0,1,-398.007224711975,-128.92139436823118) translate(0 16.589501953125)"/><path d="M-145.44 204.5h135.2v60.28h-135.2z" fill="none"/><use xlink:href="#K" transform="matrix(1,0,0,1,-125.43815244635016,227.5147091473939) translate(0 16.589501953125)"/><path d="M-113.66-348.08h143.6v100.77h-143.6z" fill="none"/><use xlink:href="#L" transform="matrix(1,0,0,1,-93.6583086963501,-325.08275179010616) translate(0 16.334755859375)"/><use xlink:href="#M" transform="matrix(1,0,0,1,-93.6583086963501,-325.08275179010616) translate(67.92451171875001 16.334755859375)"/><use xlink:href="#N" transform="matrix(1,0,0,1,-93.6583086963501,-325.08275179010616) translate(0 36.589501953125)"/><use xlink:href="#O" transform="matrix(1,0,0,1,-93.6583086963501,-325.08275179010616) translate(73.033154296875 36.589501953125)"/><use xlink:href="#P" transform="matrix(1,0,0,1,-93.6583086963501,-325.08275179010616) translate(0 56.844248046875)"/><use xlink:href="#Q" transform="matrix(1,0,0,1,-93.6583086963501,-325.08275179010616) translate(57.985136718750006 56.844248046875)"/><path d="M-1114.24 113.95l-5.8-.12-7.3-.46-6.52-.68-5.94-.88-5.48-1.05-5.16-1.2-4.95-1.4-4.85-1.57-4.9-1.82-5.2-2.18-5.9-2.8-8.64-4.54-22.32-12.2-5.92-2.8-5.18-2.17-4.9-1.83-4.87-1.58-4.94-1.4-5.16-1.2-5.48-1.05-5.93-.87-6.54-.7-7.3-.44-5.8-.12" stroke="#008a0e" stroke-width="5" stroke-linejoin="round" fill="none"/><path d="M-1111.74 111.53v4.95l-2.62-.06.1-4.95zM-1269.17 66.4v4.94h-2.57V66.4z" stroke="#008a0e" stroke-width=".05" fill="#008a0e"/><path d="M-820.5-9l-13.1-.27-12.3-.77-10.35-1.08-9.24-1.36-8.96-1.7-10.34-2.45-36.75-9.66-8.98-1.7-9.24-1.36-10.34-1.1-12.33-.75-13.08-.27" stroke="#82755b" stroke-width="5" stroke-linejoin="round" fill="none"/><path d="M-818-11.43v4.95l-2.62-.05.1-4.95zM-975.44-34v4.95H-978V-34z" stroke="#82755b" stroke-width=".05" fill="#82755b"/><path d="M-302.94 289.86l4.37-.1 6.17-.38 5.6-.6 5.18-.75 4.82-.92 4.56-1.06 4.35-1.2 4.23-1.38 4.16-1.55 4.16-1.74 4.3-2.03 4.6-2.4 5.3-3.07 7.28-4.64 24.13-16.13 5.28-3.06 4.6-2.42 4.3-2.02 4.2-1.76 4.15-1.54 4.2-1.38 4.37-1.2 4.55-1.08 4.82-.9 5.17-.78 5.62-.6 6.17-.37 4.36-.1" stroke="#fc9432" stroke-width="5" stroke-linejoin="round" fill="none"/><path d="M-302.82 292.33l-2.62.05v-4.95l2.52-.05zM-145.44 237.12H-148v-4.95h2.56z" stroke="#fc9432" stroke-width=".05" fill="#fc9432"/><path d="M-291.5 78.94l5.82-.1 7.3-.47 6.52-.68 5.93-.9 5.5-1.03 5.15-1.2 4.95-1.4 4.85-1.57 4.9-1.83 5.2-2.18 5.9-2.8 8.65-4.54 22.33-12.2 5.92-2.8 5.18-2.17 4.9-1.84 4.86-1.58 4.95-1.38 5.17-1.2 5.5-1.05 5.92-.88 6.5-.68 7.3-.47 5.8-.12" stroke="#e81313" stroke-width="5" stroke-linejoin="round" fill="none"/><path d="M-291.37 81.42l-2.62.05v-4.95l2.53-.05zM-134 36.34h-2.55V31.4h2.56z" stroke="#e81313" stroke-width=".05" fill="#e81313"/><path d="M-312.73-121.84l4.37-.1 6.17-.38 5.62-.6 5.17-.75 4.8-.92 4.56-1.05 4.36-1.22 4.22-1.37 4.15-1.54 4.17-1.76 4.3-2.03 4.6-2.4 5.3-3.06 7.28-4.65 24.13-16.13 5.28-3.06 4.6-2.4 4.3-2.04 4.2-1.75 4.14-1.55 4.22-1.37 4.35-1.22 4.56-1.05 4.82-.92 5.17-.76 5.6-.6 6.18-.38 4.37-.1" stroke="#d916a8" stroke-width="5" stroke-linejoin="round" fill="none"/><path d="M-312.6-119.37l-2.63.06v-4.96l2.52-.06zM-155.23-174.57h-2.56v-4.95h2.57z" stroke="#d916a8" stroke-width=".05" fill="#d916a8"/><path d="M-575.5-8.86h.13l1.3.15 1.26.18 1.26.24 1.26.3 1.26.34 1.26.42 1.27.47 1.3.54 1.3.6 1.34.7 1.36.8 1.4.88 1.45 1 1.5 1.14 1.55 1.3 1.63 1.46 1.72 1.68 1.8 1.93 1.95 2.24 2.07 2.6 2.24 3.1 2.45 3.68 2.7 4.45 3 5.48 3.4 6.9 4 8.96 4.82 12.23 6.3 18.16 10.48 35.17 27.98 99.58 6.3 18.16 4.8 12.24 4 8.96 3.4 6.9 3.02 5.48 2.7 4.45 2.43 3.68 2.24 3.1 2.07 2.6 1.92 2.25 1.82 1.94 1.7 1.67 1.64 1.47 1.56 1.3 1.5 1.13 1.44 1 1.4.9 1.36.78 1.34.7 1.3.6 1.3.55 1.26.47 1.27.4 1.27.37 1.26.3 1.26.23 1.26.2 1.3.13h.13" stroke="#fc9432" stroke-width="5" stroke-linejoin="round" fill="none"/><path d="M-575.4-11.38l-.1 4.95-2.5-.05v-4.95zM-418 287.43v4.95h-2.57v-4.95z" stroke="#fc9432" stroke-width=".05" fill="#fc9432"/><path d="M-575.5-8.9l1.9.03 4.12.26 3.87.4 3.65.54 3.5.67 3.35.8 3.25.9 3.15 1.02 3.1 1.15 3.03 1.28 3.04 1.43 3.04 1.6 3.1 1.77 3.15 2 3.28 2.3 3.5 2.64 3.8 3.15 4.4 3.95 5.6 5.5 28.93 30.53 4.38 3.95 3.82 3.17 3.5 2.65 3.28 2.28 3.16 2 3.08 1.8 3.04 1.58 3.03 1.43 3.05 1.27 3.1 1.15 3.14 1.02 3.24.9 3.36.8 3.5.66 3.66.54 3.87.4 4.1.26 1.92.04" stroke="#e81313" stroke-width="5" stroke-linejoin="round" fill="none"/><path d="M-575.4-11.38l-.1 4.95-2.5-.05v-4.95zM-418 76.52v4.95h-2.57v-4.95z" stroke="#e81313" stroke-width=".05" fill="#e81313"/><path d="M-575.5-9l.96-.03 3.28-.2 3.13-.33 3-.45 2.9-.56 2.8-.66 2.73-.76 2.68-.87 2.63-.98 2.62-1.1 2.6-1.22 2.6-1.36 2.62-1.52 2.67-1.7 2.73-1.9 2.82-2.13 2.95-2.44 3.12-2.8 3.4-3.33 3.76-4.02 4.44-5.15 5.88-7.44 28.26-38.3 4.44-5.16 3.78-4.02 3.38-3.32 3.13-2.82 2.94-2.44 2.8-2.14 2.74-1.9 2.66-1.68 2.63-1.52 2.6-1.36 2.6-1.22 2.6-1.1 2.64-.98 2.68-.87 2.74-.76 2.8-.66 2.9-.54 3-.44 3.12-.33 3.3-.22.95-.02" stroke="#d916a8" stroke-width="5" stroke-linejoin="round" fill="none"/><path d="M-575.4-6.54l-2.6.06v-4.95l2.5-.06zM-418-119.3h-2.57v-4.96h2.56z" stroke="#d916a8" stroke-width=".05" fill="#d916a8"/><path d="M-820.5-9l-.7-.02-3.03-.2-2.9-.3-2.8-.4-2.7-.53-2.63-.6-2.57-.73-2.52-.82-2.5-.93-2.45-1.03-2.47-1.16-2.46-1.3-2.5-1.43-2.5-1.6-2.6-1.8-2.65-2-2.76-2.3-2.9-2.62-3.12-3.04-3.38-3.62-3.8-4.4-4.5-5.7-6.05-8.36-28.07-41.47-4.5-5.7-3.8-4.4-3.4-3.6-3.1-3.05-2.9-2.62-2.76-2.3-2.66-2-2.57-1.8-2.53-1.6-2.48-1.44-2.47-1.3-2.46-1.15-2.48-1.05-2.48-.92-2.53-.82-2.55-.7-2.63-.63-2.7-.5-2.8-.42-2.9-.3-3.04-.2h-.7" stroke="#ba23f6" stroke-width="5" stroke-linejoin="round" fill="none"/><path d="M-818-11.43v4.95l-2.63-.06.1-4.95zM-975.44-134.4v4.96H-978v-4.95z" stroke="#ba23f6" stroke-width=".05" fill="#ba23f6"/><path d="M-575.5-9.06h.22l1.33-.15 1.32-.2 1.3-.25 1.3-.3 1.3-.37 1.3-.42 1.3-.5 1.33-.55 1.35-.62 1.37-.72 1.4-.8 1.43-.92 1.48-1.03 1.53-1.15 1.6-1.32 1.67-1.5 1.75-1.72 1.86-1.97 1.97-2.3 2.13-2.67 2.3-3.15 2.48-3.75 2.76-4.55 3.08-5.6 3.5-7.08 4.1-9.23 5-12.7 6.7-19.33 13.7-46.24 21-72.55 6.7-19.33 5-12.7 4.1-9.23 3.5-7.07 3.08-5.6 2.75-4.56 2.5-3.77 2.3-3.15 2.1-2.67 1.98-2.28 1.85-1.98 1.76-1.72 1.67-1.5 1.6-1.32 1.53-1.17 1.48-1.03 1.43-.9 1.4-.82 1.37-.7 1.34-.64 1.33-.56 1.3-.5 1.32-.4 1.3-.37 1.3-.3 1.3-.25 1.3-.2 1.34-.13.24-.02" stroke="#635dff" stroke-width="5" stroke-linejoin="round" fill="none"/><path d="M-575.4-6.54l-2.6.06v-4.95l2.5-.06zM-418-295.22h-2.57v-4.95h2.56z" stroke="#635dff" stroke-width=".05" fill="#635dff"/><path d="M-155.23-106.8H-31.2v80.53h-124.03z" fill="none"/><use xlink:href="#a" transform="matrix(1,0,0,1,-135.23039854009994,-83.78902132135619) translate(0 16.46212890625)"/><use xlink:href="#b" transform="matrix(1,0,0,1,-135.23039854009994,-83.78902132135619) translate(37.068310546875004 16.46212890625)"/><use xlink:href="#c" transform="matrix(1,0,0,1,-135.23039854009994,-83.78902132135619) translate(0 36.716875)"/><path d="M-312.73-121.74l4.37.1 6.17.38 5.62.6 5.17.75 4.8.9 4.56 1.08 4.36 1.2 4.22 1.38 4.15 1.55 4.17 1.76 4.3 2.03 4.6 2.4 5.3 3.05 7.28 4.65 24.13 16.13 5.28 3.05 4.6 2.4 4.3 2.04 4.2 1.75 4.14 1.55 4.22 1.37 4.35 1.2 4.56 1.07 4.82.92 5.17.76 5.6.58 6.18.4 4.37.08" stroke="#d916a8" stroke-width="5" stroke-linejoin="round" fill="none"/><path d="M-312.6-124.2l-.1 4.94-2.53-.05v-4.97zM-155.23-69v4.95h-2.56V-69z" stroke="#d916a8" stroke-width=".05" fill="#d916a8"/><path d="M-1114.24 114.05l-5.8.12-7.3.46-6.52.68-5.94.88-5.48 1.05-5.16 1.2-4.95 1.4-4.85 1.57-4.9 1.82-5.2 2.2-5.9 2.77-8.64 4.54-22.32 12.2-5.92 2.8-5.18 2.17-4.9 1.83-4.87 1.58-4.94 1.4-5.16 1.2-5.48 1.05-5.93.87-6.54.7-7.3.44-5.8.12" stroke="#008a0e" stroke-width="5" stroke-linejoin="round" fill="none"/><path d="M-1111.74 116.48l-2.5.05-.12-4.95 2.62-.05zM-1269.17 161.6h-2.57v-4.94h2.57z" stroke="#008a0e" stroke-width=".05" fill="#008a0e"/><path d="M-418 259.77h112.56v60.27H-418z" fill="none"/><use xlink:href="#d" transform="matrix(1,0,0,1,-398.007224711975,282.77445524114387) translate(0 16.589501953125)"/><path d="M149.75 184.26h254.83v100.77H149.75z" fill="none"/><use xlink:href="#e" transform="matrix(1,0,0,1,169.74790224114986,207.2599630536439) translate(0 16.334755859375)"/><use xlink:href="#f" transform="matrix(1,0,0,1,169.74790224114986,207.2599630536439) translate(39.978193359375005 16.334755859375)"/><use xlink:href="#g" transform="matrix(1,0,0,1,169.74790224114986,207.2599630536439) translate(0 36.589501953125)"/><use xlink:href="#h" transform="matrix(1,0,0,1,169.74790224114986,207.2599630536439) translate(16.339482421875005 36.589501953125)"/><use xlink:href="#i" transform="matrix(1,0,0,1,169.74790224114986,207.2599630536439) translate(98.143154296875 36.589501953125)"/><use xlink:href="#j" transform="matrix(1,0,0,1,169.74790224114986,207.2599630536439) translate(0 56.844248046875)"/><use xlink:href="#k" transform="matrix(1,0,0,1,169.74790224114986,207.2599630536439) translate(19.739794921875003 56.844248046875)"/><use xlink:href="#l" transform="matrix(1,0,0,1,169.74790224114986,207.2599630536439) translate(89.429853515625 56.844248046875)"/><use xlink:href="#m" transform="matrix(1,0,0,1,169.74790224114986,207.2599630536439) translate(172.034560546875 56.844248046875)"/><path d="M-1111.74 83.87H-978v60.26h-133.74z" fill="none"/><use xlink:href="#n" transform="matrix(1,0,0,1,-1091.7383379932248,106.86784391301887) translate(0.2788867187500017 16.589501953125)"/><path d="M-1279.73-71.78H-978V8.74h-301.73z" fill="none"/><use xlink:href="#o" transform="matrix(1,0,0,1,-1259.726853618225,-48.784021321356136) translate(215.057705078125 16.46212890625)"/><use xlink:href="#p" transform="matrix(1,0,0,1,-1259.726853618225,-48.784021321356136) translate(254.30025390625 16.46212890625)"/><use xlink:href="#q" transform="matrix(1,0,0,1,-1259.726853618225,-48.784021321356136) translate(0.29037109374996817 36.716875)"/><use xlink:href="#r" transform="matrix(1,0,0,1,-1259.726853618225,-48.784021321356136) translate(62.14172851562498 36.716875)"/><use xlink:href="#s" transform="matrix(1,0,0,1,-1259.726853618225,-48.784021321356136) translate(145.19599609374998 36.716875)"/><path d="M-291.5 79.05l5.82.12 7.3.45 6.52.7 5.93.86 5.5 1.04 5.15 1.2 4.95 1.4 4.85 1.57 4.9 1.82 5.2 2.18 5.9 2.8 8.65 4.53 22.33 12.2 5.92 2.8 5.18 2.17 4.9 1.83 4.86 1.58 4.95 1.4 5.17 1.2 5.5 1.04 5.92.88 6.5.68 7.3.46 5.8.12" stroke="#e81313" stroke-width="5" stroke-linejoin="round" fill="none"/><path d="M-291.37 76.57l-.1 4.95-2.52-.05v-4.95zM-134 121.65v4.95h-2.55v-4.95z" stroke="#e81313" stroke-width=".05" fill="#e81313"/><path d="M-1120.98-162.05H-978v60.27H-1121z" fill="none"/><use xlink:href="#t" transform="matrix(1,0,0,1,-1100.9829376026,-139.04876741510614) translate(0.03428710937498636 16.589501953125)"/><use xlink:href="#u" transform="matrix(1,0,0,1,-1100.9829376026,-139.04876741510614) translate(41.181337890624995 16.589501953125)"/><path d="M131.4 315.03h133.9v60.27H131.4z" fill="none"/><use xlink:href="#v" transform="matrix(1,0,0,1,151.39765810052495,338.03420133489385) translate(0 16.589501953125)"/><path d="M-302.94 289.96l4.37.1 6.17.37 5.6.6 5.18.76 4.82.9 4.56 1.07 4.35 1.22 4.23 1.36 4.16 1.54 4.16 1.76 4.3 2.02 4.6 2.42 5.3 3.05 7.28 4.65 24.13 16.12 5.28 3.06 4.6 2.4 4.3 2.04 4.2 1.75 4.15 1.55 4.2 1.37 4.37 1.2 4.55 1.07 4.82.92 5.17.75 5.62.6 6.17.38 4.36.1" stroke="#fc9432" stroke-width="5" stroke-linejoin="round" fill="none"/><path d="M-302.82 287.5l-.1 4.93-2.52-.05v-4.95zM-145.44 342.7v4.94H-148v-4.95z" stroke="#fc9432" stroke-width=".05" fill="#fc9432"/><path d="M-418 38.73h124v80.53h-124z" fill="none"/><use xlink:href="#a" transform="matrix(1,0,0,1,-398.007224711975,61.73547086614383) translate(0 16.46212890625)"/><use xlink:href="#b" transform="matrix(1,0,0,1,-398.007224711975,61.73547086614383) translate(37.068310546875004 16.46212890625)"/><use xlink:href="#c" transform="matrix(1,0,0,1,-398.007224711975,61.73547086614383) translate(0 36.716875)"/><path d="M-271.16-297.7h155" stroke="#635dff" stroke-width="5" stroke-linejoin="round" fill="none"/><path d="M-271.1-295.22h-2.56v-4.95h2.57zM-113.66-295.22h-2.56v-4.95h2.56z" stroke="#635dff" stroke-width=".05" fill="#635dff"/><path d="M-818-14.16a40 40 0 0 1 40-40h160a40 40 0 0 1 40 40v10.4a40 40 0 0 1-40 40h-160a40 40 0 0 1-40-40z" fill="#fff"/><use xlink:href="#w" transform="matrix(1,0,0,1,-813.007224711975,-49.162307454168655) translate(63.88671875 34.5625)"/><use xlink:href="#x" transform="matrix(1,0,0,1,-813.007224711975,-49.162307454168655) translate(47.0751953125 58.76171875)"/><path d="M-155.23-217.3H-43.7v80.5h-111.53z" fill="none"/><use xlink:href="#y" transform="matrix(1,0,0,1,-135.23039854009994,-194.30851350885618) translate(0 16.46212890625)"/><use xlink:href="#z" transform="matrix(1,0,0,1,-135.23039854009994,-194.30851350885618) translate(0 36.716875)"/><path d="M-134 94H27.07v60.26H-134z" fill="none"/><use xlink:href="#A" transform="matrix(1,0,0,1,-113.98661924322505,116.99521695989381) translate(0 16.589501953125)"/><path d="M-820.5-8.9h-.7l-3.03.2-2.9.3-2.8.42-2.7.5-2.63.63-2.57.7-2.52.83-2.5.93-2.45 1.05-2.47 1.16-2.46 1.3-2.5 1.43-2.5 1.6-2.6 1.8-2.65 2.02-2.76 2.28-2.9 2.62-3.12 3.05-3.38 3.6-3.8 4.4-4.5 5.7-6.05 8.36-28.07 41.48-4.5 5.7-3.8 4.4-3.4 3.6-3.1 3.05-2.9 2.6-2.76 2.3-2.66 2.02-2.57 1.8-2.53 1.6-2.48 1.43-2.47 1.3-2.46 1.14-2.48 1.03-2.48.93-2.53.82-2.55.7-2.63.63-2.7.53-2.8.4-2.9.3-3.04.2-.7.02" stroke="#008a0e" stroke-width="5" stroke-linejoin="round" fill="none"/><path d="M-818-6.48l-2.52.05-.1-4.95 2.6-.05zM-975.44 116.47H-978v-4.94h2.56z" stroke="#008a0e" stroke-width=".05" fill="#008a0e"/><path d="M-1352.72 38.73h80.98V99h-80.98z" fill="none"/><use xlink:href="#B" transform="matrix(1,0,0,1,-1332.72373838385,61.73547086614383) translate(0.024599609374988063 16.589501953125)"/><path d="M-145.44 315.03H-28.6v60.27h-116.84z" fill="none"/><use xlink:href="#C" transform="matrix(1,0,0,1,-125.43815244635016,338.03420133489385) translate(0 16.589501953125)"/><path d="M-418-337.95h144.34v80.5H-418z" fill="none"/><use xlink:href="#D" transform="matrix(1,0,0,1,-398.007224711975,-314.9553787432312) translate(0 16.46212890625)"/><use xlink:href="#E" transform="matrix(1,0,0,1,-398.007224711975,-314.9553787432312) translate(67.622080078125 16.46212890625)"/><use xlink:href="#F" transform="matrix(1,0,0,1,-398.007224711975,-314.9553787432312) translate(0 36.716875)"/><path d="M-7.75 234.65h155" stroke="#fc9432" stroke-width="5" stroke-linejoin="round" fill="none"/><path d="M-7.7 237.12h-2.55v-4.95h2.56zM149.75 237.12h-2.57v-4.95h2.57z" stroke="#fc9432" stroke-width=".05" fill="#fc9432"/><path d="M-1441.97 129h170.23v60.26h-170.23z" fill="none"/><use xlink:href="#G" transform="matrix(1,0,0,1,-1421.9655938525998,152.00021695989392) translate(0.7827441406249704 16.589501953125)"/><use xlink:href="#H" transform="matrix(1,0,0,1,-1421.9655938525998,152.00021695989392) translate(83.21580078124998 16.589501953125)"/><path d="M-134 3.73h120.96V64H-134z" fill="none"/><use xlink:href="#I" transform="matrix(1,0,0,1,-113.98661924322505,26.730470866143833) translate(0 16.589501953125)"/><path d="M-26.1 345.17h155" stroke="#fc9432" stroke-width="5" stroke-linejoin="round" fill="none"/><path d="M-26.04 347.64h-2.56v-4.95h2.56zM131.4 347.64h-2.57v-4.95h2.57z" stroke="#fc9432" stroke-width=".05" fill="#fc9432"/><path d="M-418-151.92h102.77v60.26H-418z" fill="none"/><use xlink:href="#J" transform="matrix(1,0,0,1,-398.007224711975,-128.92139436823118) translate(0 16.589501953125)"/><path d="M-145.44 204.5h135.2v60.28h-135.2z" fill="none"/><use xlink:href="#K" transform="matrix(1,0,0,1,-125.43815244635016,227.5147091473939) translate(0 16.589501953125)"/><path d="M-113.66-348.08h143.6v100.77h-143.6z" fill="none"/><use xlink:href="#L" transform="matrix(1,0,0,1,-93.6583086963501,-325.08275179010616) translate(0 16.334755859375)"/><use xlink:href="#M" transform="matrix(1,0,0,1,-93.6583086963501,-325.08275179010616) translate(67.92451171875001 16.334755859375)"/><use xlink:href="#N" transform="matrix(1,0,0,1,-93.6583086963501,-325.08275179010616) translate(0 36.589501953125)"/><use xlink:href="#O" transform="matrix(1,0,0,1,-93.6583086963501,-325.08275179010616) translate(73.033154296875 36.589501953125)"/><use xlink:href="#P" transform="matrix(1,0,0,1,-93.6583086963501,-325.08275179010616) translate(0 56.844248046875)"/><use xlink:href="#Q" transform="matrix(1,0,0,1,-93.6583086963501,-325.08275179010616) translate(57.985136718750006 56.844248046875)"/><path d="M-1114.24 113.95l-5.8-.12-7.3-.46-6.52-.68-5.94-.88-5.48-1.05-5.16-1.2-4.95-1.4-4.85-1.57-4.9-1.82-5.2-2.18-5.9-2.8-8.64-4.54-22.32-12.2-5.92-2.8-5.18-2.17-4.9-1.83-4.87-1.58-4.94-1.4-5.16-1.2-5.48-1.05-5.93-.87-6.54-.7-7.3-.44-5.8-.12" stroke="#008a0e" stroke-width="5" stroke-linejoin="round" fill="none"/><path d="M-1111.74 111.53v4.95l-2.62-.06.1-4.95zM-1269.17 66.4v4.94h-2.57V66.4z" stroke="#008a0e" stroke-width=".05" fill="#008a0e"/><path d="M-820.5-9l-13.1-.27-12.3-.77-10.35-1.08-9.24-1.36-8.96-1.7-10.34-2.45-36.75-9.66-8.98-1.7-9.24-1.36-10.34-1.1-12.33-.75-13.08-.27" stroke="#82755b" stroke-width="5" stroke-linejoin="round" fill="none"/><path d="M-818-11.43v4.95l-2.62-.05.1-4.95zM-975.44-34v4.95H-978V-34z" stroke="#82755b" stroke-width=".05" fill="#82755b"/><path d="M-302.94 289.86l4.37-.1 6.17-.38 5.6-.6 5.18-.75 4.82-.92 4.56-1.06 4.35-1.2 4.23-1.38 4.16-1.55 4.16-1.74 4.3-2.03 4.6-2.4 5.3-3.07 7.28-4.64 24.13-16.13 5.28-3.06 4.6-2.42 4.3-2.02 4.2-1.76 4.15-1.54 4.2-1.38 4.37-1.2 4.55-1.08 4.82-.9 5.17-.78 5.62-.6 6.17-.37 4.36-.1" stroke="#fc9432" stroke-width="5" stroke-linejoin="round" fill="none"/><path d="M-302.82 292.33l-2.62.05v-4.95l2.52-.05zM-145.44 237.12H-148v-4.95h2.56z" stroke="#fc9432" stroke-width=".05" fill="#fc9432"/><path d="M-291.5 78.94l5.82-.1 7.3-.47 6.52-.68 5.93-.9 5.5-1.03 5.15-1.2 4.95-1.4 4.85-1.57 4.9-1.83 5.2-2.18 5.9-2.8 8.65-4.54 22.33-12.2 5.92-2.8 5.18-2.17 4.9-1.84 4.86-1.58 4.95-1.38 5.17-1.2 5.5-1.05 5.92-.88 6.5-.68 7.3-.47 5.8-.12" stroke="#e81313" stroke-width="5" stroke-linejoin="round" fill="none"/><path d="M-291.37 81.42l-2.62.05v-4.95l2.53-.05zM-134 36.34h-2.55V31.4h2.56z" stroke="#e81313" stroke-width=".05" fill="#e81313"/><path d="M-312.73-121.84l4.37-.1 6.17-.38 5.62-.6 5.17-.75 4.8-.92 4.56-1.05 4.36-1.22 4.22-1.37 4.15-1.54 4.17-1.76 4.3-2.03 4.6-2.4 5.3-3.06 7.28-4.65 24.13-16.13 5.28-3.06 4.6-2.4 4.3-2.04 4.2-1.75 4.14-1.55 4.22-1.37 4.35-1.22 4.56-1.05 4.82-.92 5.17-.76 5.6-.6 6.18-.38 4.37-.1" stroke="#d916a8" stroke-width="5" stroke-linejoin="round" fill="none"/><path d="M-312.6-119.37l-2.63.06v-4.96l2.52-.06zM-155.23-174.57h-2.56v-4.95h2.57z" stroke="#d916a8" stroke-width=".05" fill="#d916a8"/><path d="M-575.5-8.86h.13l1.3.15 1.26.18 1.26.24 1.26.3 1.26.34 1.26.42 1.27.47 1.3.54 1.3.6 1.34.7 1.36.8 1.4.88 1.45 1 1.5 1.14 1.55 1.3 1.63 1.46 1.72 1.68 1.8 1.93 1.95 2.24 2.07 2.6 2.24 3.1 2.45 3.68 2.7 4.45 3 5.48 3.4 6.9 4 8.96 4.82 12.23 6.3 18.16 10.48 35.17 27.98 99.58 6.3 18.16 4.8 12.24 4 8.96 3.4 6.9 3.02 5.48 2.7 4.45 2.43 3.68 2.24 3.1 2.07 2.6 1.92 2.25 1.82 1.94 1.7 1.67 1.64 1.47 1.56 1.3 1.5 1.13 1.44 1 1.4.9 1.36.78 1.34.7 1.3.6 1.3.55 1.26.47 1.27.4 1.27.37 1.26.3 1.26.23 1.26.2 1.3.13h.13" stroke="#fc9432" stroke-width="5" stroke-linejoin="round" fill="none"/><path d="M-575.4-11.38l-.1 4.95-2.5-.05v-4.95zM-418 287.43v4.95h-2.57v-4.95z" stroke="#fc9432" stroke-width=".05" fill="#fc9432"/><path d="M-575.5-8.9l1.9.03 4.12.26 3.87.4 3.65.54 3.5.67 3.35.8 3.25.9 3.15 1.02 3.1 1.15 3.03 1.28 3.04 1.43 3.04 1.6 3.1 1.77 3.15 2 3.28 2.3 3.5 2.64 3.8 3.15 4.4 3.95 5.6 5.5 28.93 30.53 4.38 3.95 3.82 3.17 3.5 2.65 3.28 2.28 3.16 2 3.08 1.8 3.04 1.58 3.03 1.43 3.05 1.27 3.1 1.15 3.14 1.02 3.24.9 3.36.8 3.5.66 3.66.54 3.87.4 4.1.26 1.92.04" stroke="#e81313" stroke-width="5" stroke-linejoin="round" fill="none"/><path d="M-575.4-11.38l-.1 4.95-2.5-.05v-4.95zM-418 76.52v4.95h-2.57v-4.95z" stroke="#e81313" stroke-width=".05" fill="#e81313"/><path d="M-575.5-9l.96-.03 3.28-.2 3.13-.33 3-.45 2.9-.56 2.8-.66 2.73-.76 2.68-.87 2.63-.98 2.62-1.1 2.6-1.22 2.6-1.36 2.62-1.52 2.67-1.7 2.73-1.9 2.82-2.13 2.95-2.44 3.12-2.8 3.4-3.33 3.76-4.02 4.44-5.15 5.88-7.44 28.26-38.3 4.44-5.16 3.78-4.02 3.38-3.32 3.13-2.82 2.94-2.44 2.8-2.14 2.74-1.9 2.66-1.68 2.63-1.52 2.6-1.36 2.6-1.22 2.6-1.1 2.64-.98 2.68-.87 2.74-.76 2.8-.66 2.9-.54 3-.44 3.12-.33 3.3-.22.95-.02" stroke="#d916a8" stroke-width="5" stroke-linejoin="round" fill="none"/><path d="M-575.4-6.54l-2.6.06v-4.95l2.5-.06zM-418-119.3h-2.57v-4.96h2.56z" stroke="#d916a8" stroke-width=".05" fill="#d916a8"/><path d="M-820.5-9l-.7-.02-3.03-.2-2.9-.3-2.8-.4-2.7-.53-2.63-.6-2.57-.73-2.52-.82-2.5-.93-2.45-1.03-2.47-1.16-2.46-1.3-2.5-1.43-2.5-1.6-2.6-1.8-2.65-2-2.76-2.3-2.9-2.62-3.12-3.04-3.38-3.62-3.8-4.4-4.5-5.7-6.05-8.36-28.07-41.47-4.5-5.7-3.8-4.4-3.4-3.6-3.1-3.05-2.9-2.62-2.76-2.3-2.66-2-2.57-1.8-2.53-1.6-2.48-1.44-2.47-1.3-2.46-1.15-2.48-1.05-2.48-.92-2.53-.82-2.55-.7-2.63-.63-2.7-.5-2.8-.42-2.9-.3-3.04-.2h-.7" stroke="#ba23f6" stroke-width="5" stroke-linejoin="round" fill="none"/><path d="M-818-11.43v4.95l-2.63-.06.1-4.95zM-975.44-134.4v4.96H-978v-4.95z" stroke="#ba23f6" stroke-width=".05" fill="#ba23f6"/><path d="M-575.5-9.06h.22l1.33-.15 1.32-.2 1.3-.25 1.3-.3 1.3-.37 1.3-.42 1.3-.5 1.33-.55 1.35-.62 1.37-.72 1.4-.8 1.43-.92 1.48-1.03 1.53-1.15 1.6-1.32 1.67-1.5 1.75-1.72 1.86-1.97 1.97-2.3 2.13-2.67 2.3-3.15 2.48-3.75 2.76-4.55 3.08-5.6 3.5-7.08 4.1-9.23 5-12.7 6.7-19.33 13.7-46.24 21-72.55 6.7-19.33 5-12.7 4.1-9.23 3.5-7.07 3.08-5.6 2.75-4.56 2.5-3.77 2.3-3.15 2.1-2.67 1.98-2.28 1.85-1.98 1.76-1.72 1.67-1.5 1.6-1.32 1.53-1.17 1.48-1.03 1.43-.9 1.4-.82 1.37-.7 1.34-.64 1.33-.56 1.3-.5 1.32-.4 1.3-.37 1.3-.3 1.3-.25 1.3-.2 1.34-.13.24-.02" stroke="#635dff" stroke-width="5" stroke-linejoin="round" fill="none"/><path d="M-575.4-6.54l-2.6.06v-4.95l2.5-.06zM-418-295.22h-2.57v-4.95h2.56z" stroke="#635dff" stroke-width=".05" fill="#635dff"/><path d="M-818 519.92a40 40 0 0 1 40-40h160a40 40 0 0 1 40 40v10.4a40 40 0 0 1-40 40h-160a40 40 0 0 1-40-40z" fill="#fff"/><g><use xlink:href="#R" transform="matrix(1,0,0,1,-813.007224711975,484.9221893870664) translate(39.228515625 34.5625)"/><use xlink:href="#x" transform="matrix(1,0,0,1,-813.007224711975,484.9221893870664) translate(47.0751953125 58.76171875)"/></g><path d="M-1073.76 449.86H-978v60.27h-95.76z" fill="none"/><g><use xlink:href="#S" transform="matrix(1,0,0,1,-1053.762732524475,472.8616620433164) translate(0.2544921874999915 16.589501953125)"/></g><path d="M-418 585.26h165.63v60.26H-418z" fill="none"/><g><use xlink:href="#T" transform="matrix(1,0,0,1,-398.007224711975,608.2587811839413) translate(0 16.589501953125)"/><use xlink:href="#U" transform="matrix(1,0,0,1,-398.007224711975,608.2587811839413) translate(54.91177734375 16.589501953125)"/></g><path d="M-1098.07 540.13H-978v60.26h-120.07z" fill="none"/><g><use xlink:href="#V" transform="matrix(1,0,0,1,-1078.0716973682252,563.1264081370664) translate(0.9455273437500011 16.589501953125)"/></g><path d="M-820.5 525.18l-5.82.12-7.3.45-6.5.7-5.94.86-5.5 1.06-5.15 1.2-4.96 1.4-4.86 1.56-4.9 1.83-5.2 2.18-5.9 2.8-8.64 4.53-22.33 12.2-5.9 2.8-5.2 2.17-4.9 1.83-4.85 1.58-4.95 1.38-5.17 1.2-5.48 1.06-5.93.87-6.52.68-7.3.46-5.8.1" stroke="#1071e5" stroke-width="5" stroke-linejoin="round" fill="none"/><path d="M-818 527.6l-2.52.05-.1-4.95 2.6-.05zM-975.44 572.73H-978v-4.95h2.56z" stroke="#1071e5" stroke-width=".05" fill="#1071e5"/><path d="M-418 404.73h101.86V465H-418z" fill="none"/><g><use xlink:href="#W" transform="matrix(1,0,0,1,-398.007224711975,427.72928899644137) translate(0 16.589501953125)"/></g><path d="M-418 495h107.4v60.26H-418z" fill="none"/><g><use xlink:href="#X" transform="matrix(1,0,0,1,-398.007224711975,517.9940350901913) translate(0 16.589501953125)"/></g><path d="M-575.5 525.18l1.8.04 4 .25 3.8.4 3.6.52 3.42.65 3.3.77 3.18.9 3.1 1 3.04 1.13 3 1.26 3 1.4 2.98 1.58 3.02 1.75 3.1 1.96 3.2 2.23 3.4 2.58 3.7 3.05 4.15 3.75 5.08 5 8.27 8.87 18.96 20.85 5.1 5 4.16 3.74 3.68 3.05 3.4 2.6 3.2 2.23 3.1 1.96 3.03 1.74 3 1.56 2.97 1.4 3 1.27 3.04 1.13 3.1 1 3.2.9 3.28.77 3.43.65 3.58.53 3.8.4 4 .25 1.8.04" stroke="#e81313" stroke-width="5" stroke-linejoin="round" fill="none"/><path d="M-575.4 522.7l-.1 4.95-2.5-.05v-4.95zM-418 612.92v4.95h-2.57v-4.95z" stroke="#e81313" stroke-width=".05" fill="#e81313"/><path d="M-575.5 525.13h155" stroke="#e81313" stroke-width="5" stroke-linejoin="round" fill="none"/><path d="M-575.44 527.6H-578v-4.95h2.56zM-418 527.6h-2.57v-4.95h2.56z" stroke="#e81313" stroke-width=".05" fill="#e81313"/><path d="M-575.5 525.08l1.8-.04 4-.25 3.8-.4 3.6-.54 3.42-.66 3.3-.77 3.18-.9 3.1-1 3.04-1.13 3-1.26 3-1.4 2.98-1.56 3.02-1.75 3.1-1.97 3.2-2.23 3.4-2.58 3.7-3.05 4.15-3.75 5.08-5 8.27-8.86 18.96-20.87 5.1-5 4.16-3.74 3.68-3.06 3.4-2.58 3.2-2.23 3.1-1.97 3.03-1.75 3-1.55 2.97-1.4 3-1.27 3.04-1.13 3.1-1 3.2-.9 3.28-.77 3.43-.65 3.58-.53 3.8-.4 4-.25 1.8-.04" stroke="#ba23f6" stroke-width="5" stroke-linejoin="round" fill="none"/><path d="M-575.4 527.55l-2.6.05v-4.95l2.5-.05zM-418 437.34h-2.57v-4.95h2.56z" stroke="#ba23f6" stroke-width=".05" fill="#ba23f6"/><path d="M-820.5 525.08l-5.82-.12-7.3-.46-6.5-.68-5.94-.88-5.5-1.04-5.15-1.2-4.96-1.4-4.86-1.57-4.9-1.83-5.2-2.18-5.9-2.8-8.64-4.53-22.33-12.2-5.9-2.8-5.2-2.18-4.9-1.83-4.85-1.58-4.95-1.4-5.17-1.2-5.48-1.04-5.93-.88-6.52-.68-7.3-.46-5.8-.12" stroke="#635dff" stroke-width="5" stroke-linejoin="round" fill="none"/><path d="M-818 522.65v4.95l-2.62-.05.1-4.95zM-975.44 477.52v4.95H-978v-4.95z" stroke="#635dff" stroke-width=".05" fill="#635dff"/><path d="M-818 519.92a40 40 0 0 1 40-40h160a40 40 0 0 1 40 40v10.4a40 40 0 0 1-40 40h-160a40 40 0 0 1-40-40z" fill="#fff"/><g><use xlink:href="#R" transform="matrix(1,0,0,1,-813.007224711975,484.9221893870664) translate(39.228515625 34.5625)"/><use xlink:href="#x" transform="matrix(1,0,0,1,-813.007224711975,484.9221893870664) translate(47.0751953125 58.76171875)"/></g><path d="M-1073.76 449.86H-978v60.27h-95.76z" fill="none"/><g><use xlink:href="#S" transform="matrix(1,0,0,1,-1053.762732524475,472.8616620433164) translate(0.2544921874999915 16.589501953125)"/></g><path d="M-418 585.26h165.63v60.26H-418z" fill="none"/><g><use xlink:href="#T" transform="matrix(1,0,0,1,-398.007224711975,608.2587811839413) translate(0 16.589501953125)"/><use xlink:href="#U" transform="matrix(1,0,0,1,-398.007224711975,608.2587811839413) translate(54.91177734375 16.589501953125)"/></g><path d="M-1098.07 540.13H-978v60.26h-120.07z" fill="none"/><g><use xlink:href="#V" transform="matrix(1,0,0,1,-1078.0716973682252,563.1264081370664) translate(0.9455273437500011 16.589501953125)"/></g><path d="M-820.5 525.18l-5.82.12-7.3.45-6.5.7-5.94.86-5.5 1.06-5.15 1.2-4.96 1.4-4.86 1.56-4.9 1.83-5.2 2.18-5.9 2.8-8.64 4.53-22.33 12.2-5.9 2.8-5.2 2.17-4.9 1.83-4.85 1.58-4.95 1.38-5.17 1.2-5.48 1.06-5.93.87-6.52.68-7.3.46-5.8.1" stroke="#1071e5" stroke-width="5" stroke-linejoin="round" fill="none"/><path d="M-818 527.6l-2.52.05-.1-4.95 2.6-.05zM-975.44 572.73H-978v-4.95h2.56z" stroke="#1071e5" stroke-width=".05" fill="#1071e5"/><path d="M-418 404.73h101.86V465H-418z" fill="none"/><g><use xlink:href="#W" transform="matrix(1,0,0,1,-398.007224711975,427.72928899644137) translate(0 16.589501953125)"/></g><path d="M-418 495h107.4v60.26H-418z" fill="none"/><g><use xlink:href="#X" transform="matrix(1,0,0,1,-398.007224711975,517.9940350901913) translate(0 16.589501953125)"/></g><path d="M-575.5 525.18l1.8.04 4 .25 3.8.4 3.6.52 3.42.65 3.3.77 3.18.9 3.1 1 3.04 1.13 3 1.26 3 1.4 2.98 1.58 3.02 1.75 3.1 1.96 3.2 2.23 3.4 2.58 3.7 3.05 4.15 3.75 5.08 5 8.27 8.87 18.96 20.85 5.1 5 4.16 3.74 3.68 3.05 3.4 2.6 3.2 2.23 3.1 1.96 3.03 1.74 3 1.56 2.97 1.4 3 1.27 3.04 1.13 3.1 1 3.2.9 3.28.77 3.43.65 3.58.53 3.8.4 4 .25 1.8.04" stroke="#e81313" stroke-width="5" stroke-linejoin="round" fill="none"/><path d="M-575.4 522.7l-.1 4.95-2.5-.05v-4.95zM-418 612.92v4.95h-2.57v-4.95z" stroke="#e81313" stroke-width=".05" fill="#e81313"/><path d="M-575.5 525.13h155" stroke="#e81313" stroke-width="5" stroke-linejoin="round" fill="none"/><path d="M-575.44 527.6H-578v-4.95h2.56zM-418 527.6h-2.57v-4.95h2.56z" stroke="#e81313" stroke-width=".05" fill="#e81313"/><path d="M-575.5 525.08l1.8-.04 4-.25 3.8-.4 3.6-.54 3.42-.66 3.3-.77 3.18-.9 3.1-1 3.04-1.13 3-1.26 3-1.4 2.98-1.56 3.02-1.75 3.1-1.97 3.2-2.23 3.4-2.58 3.7-3.05 4.15-3.75 5.08-5 8.27-8.86 18.96-20.87 5.1-5 4.16-3.74 3.68-3.06 3.4-2.58 3.2-2.23 3.1-1.97 3.03-1.75 3-1.55 2.97-1.4 3-1.27 3.04-1.13 3.1-1 3.2-.9 3.28-.77 3.43-.65 3.58-.53 3.8-.4 4-.25 1.8-.04" stroke="#ba23f6" stroke-width="5" stroke-linejoin="round" fill="none"/><path d="M-575.4 527.55l-2.6.05v-4.95l2.5-.05zM-418 437.34h-2.57v-4.95h2.56z" stroke="#ba23f6" stroke-width=".05" fill="#ba23f6"/><path d="M-820.5 525.08l-5.82-.12-7.3-.46-6.5-.68-5.94-.88-5.5-1.04-5.15-1.2-4.96-1.4-4.86-1.57-4.9-1.83-5.2-2.18-5.9-2.8-8.64-4.53-22.33-12.2-5.9-2.8-5.2-2.18-4.9-1.83-4.85-1.58-4.95-1.4-5.17-1.2-5.48-1.04-5.93-.88-6.52-.68-7.3-.46-5.8-.12" stroke="#635dff" stroke-width="5" stroke-linejoin="round" fill="none"/><path d="M-818 522.65v4.95l-2.62-.05.1-4.95zM-975.44 477.52v4.95H-978v-4.95z" stroke="#635dff" stroke-width=".05" fill="#635dff"/><defs><path d="M180 0v-1490h190v1322h690V0H180" id="Y"/><path d="M158 0v-1118h180V0H158zm91-1301c-68 0-125-53-125-119s57-119 125-119c69 0 126 53 126 119s-57 119-126 119" id="Z"/><path d="M481 0L54-1118h197c107 314 236 620 325 951 87-331 217-637 324-951h197L670 0H481" id="aa"/><path d="M628 24c-324 0-524-230-524-574 0-343 198-582 503-582 237 0 487 146 487 559v75H286c9 234 145 362 343 362 132 0 231-58 273-172l174 48C1024-91 857 24 628 24zM287-650h624c-17-190-120-322-304-322-192 0-309 151-320 322" id="ab"/><g id="a"><use transform="matrix(0.008173828125000001,0,0,0.008173828125000001,0,0)" xlink:href="#Y"/><use transform="matrix(0.008173828125000001,0,0,0.008173828125000001,9.465292968750001,0)" xlink:href="#Z"/><use transform="matrix(0.008173828125000001,0,0,0.008173828125000001,13.519511718750001,0)" xlink:href="#aa"/><use transform="matrix(0.008173828125000001,0,0,0.008173828125000001,22.600634765625003,0)" xlink:href="#ab"/></g><path d="M52 0l541-1490h220L1361 0h-200l-149-416H398L254 0H52zm404-582h497c-103-290-145-390-251-756-108 377-145 460-246 756" id="ac"/><path d="M611 442c-248 0-391-105-460-228l146-94c47 65 117 165 314 165 178 0 307-82 307-266v-224h-17C863-141 792-18 576-18c-268 0-472-195-472-546 0-346 197-568 476-568 216 0 288 133 326 193h17v-179h175V29c0 289-215 413-487 413zm-5-620c203 0 314-146 314-390 0-237-108-403-314-403-213 0-319 180-319 403 0 230 109 390 319 390" id="ad"/><path d="M338-670V0H158v-1118h173l1 207c72-158 192-221 342-221 226 0 378 139 378 422V0H872v-695c0-172-96-275-252-275-161 0-282 109-282 300" id="ae"/><path d="M598-1118v154H368v674c0 100 37 144 132 144 23 0 62-6 92-12L629-6c-37 13-88 20-134 20-193 0-307-107-307-290v-688H20v-154h168v-266h180v266h230" id="af"/><g id="b"><use transform="matrix(0.008173828125000001,0,0,0.008173828125000001,0,0)" xlink:href="#ac"/><use transform="matrix(0.008173828125000001,0,0,0.008173828125000001,11.549619140625001,0)" xlink:href="#ad"/><use transform="matrix(0.008173828125000001,0,0,0.008173828125000001,21.815947265625002,0)" xlink:href="#ab"/><use transform="matrix(0.008173828125000001,0,0,0.008173828125000001,31.575498046875005,0)" xlink:href="#ae"/><use transform="matrix(0.008173828125000001,0,0,0.008173828125000001,41.46583007812501,0)" xlink:href="#af"/></g><path d="M657 26c-323 0-524-166-541-416h195c15 169 171 246 346 246 202 0 356-106 356-265 5-203-294-238-475-293-239-73-380-191-380-389 0-252 224-419 512-419 294 0 499 171 508 396H992c-17-145-151-228-328-228-193 0-321 102-321 242 0 156 175 211 284 241l149 41c160 44 422 134 422 412 0 244-197 432-541 432" id="ag"/><path d="M537 14c-226 0-379-139-379-422v-710h180v695c0 172 97 275 253 275 160 0 281-109 281-300v-670h181V0H879v-209C806-46 684 14 537 14" id="ah"/><path d="M158 418v-1536h174v179h20c37-59 106-193 324-193 279 0 474 222 474 576 0 356-194 580-473 580-213 0-288-135-325-197h-14v591H158zm492-555c209 0 317-186 317-421 0-232-105-413-317-413-206 0-314 166-314 413 0 249 111 421 314 421" id="ai"/><path d="M613 24c-304 0-509-231-509-576 0-350 205-580 509-580 305 0 511 230 511 580 0 345-206 576-511 576zm0-161c226 0 329-195 329-415 0-222-103-419-329-419-223 0-326 196-326 419 0 220 103 415 326 415" id="aj"/><path d="M158 0v-1118h174v172h12c41-113 157-188 290-188 26 0 70 2 91 3v181c-11-2-60-10-108-10-161 0-279 109-279 260V0H158" id="ak"/><g id="c"><use transform="matrix(0.008173828125000001,0,0,0.008173828125000001,0,0)" xlink:href="#ag"/><use transform="matrix(0.008173828125000001,0,0,0.008173828125000001,10.740410156250002,0)" xlink:href="#ah"/><use transform="matrix(0.008173828125000001,0,0,0.008173828125000001,20.638916015625004,0)" xlink:href="#ai"/><use transform="matrix(0.008173828125000001,0,0,0.008173828125000001,30.888896484375003,0)" xlink:href="#ai"/><use transform="matrix(0.008173828125000001,0,0,0.008173828125000001,41.138876953125006,0)" xlink:href="#aj"/><use transform="matrix(0.008173828125000001,0,0,0.008173828125000001,51.17633789062501,0)" xlink:href="#ak"/><use transform="matrix(0.008173828125000001,0,0,0.008173828125000001,57.73992187500001,0)" xlink:href="#af"/></g><path d="M471 26C259 26 90-98 90-318c0-256 228-303 435-329 202-27 287-16 287-108 0-139-79-219-234-219-161 0-248 86-283 164l-173-57c86-203 278-265 451-265 150 0 419 46 419 395V0H815v-152h-12C765-73 660 26 471 26zm31-159c199 0 310-134 310-271v-155c-30 35-226 55-295 64-131 17-246 59-246 186 0 116 97 176 231 176" id="al"/><path d="M338-1490V0H158v-1490h180" id="am"/><path d="M140 405l46-156c120 36 205 19 263-150l32-93L54-1118h197c107 313 237 620 324 950 87-331 219-637 326-950h196L606 167c-68 178-176 259-334 259-64 0-113-12-132-21" id="an"/><path d="M613 24c-304 0-509-231-509-576 0-350 205-580 509-580 216 0 392 114 453 309l-173 49c-33-115-133-197-280-197-223 0-326 196-326 419 0 220 103 415 326 415 150 0 252-85 285-206l172 49C1010-95 832 24 613 24" id="ao"/><path d="M538 24C308 24 148-78 108-271l171-41c32 123 123 178 257 178 156 0 256-77 256-169 0-77-54-128-164-154l-186-44c-203-48-300-148-300-305 0-192 176-326 414-326 230 0 351 112 402 269l-163 42c-31-80-94-158-238-158-133 0-233 69-233 162 0 83 57 129 188 160l169 40c203 48 298 149 298 302 0 196-179 339-441 339" id="ap"/><g id="d"><use transform="matrix(0.008173828125000001,0,0,0.008173828125000001,0,0)" xlink:href="#ac"/><use transform="matrix(0.008173828125000001,0,0,0.008173828125000001,11.549619140625001,0)" xlink:href="#ae"/><use transform="matrix(0.008173828125000001,0,0,0.008173828125000001,21.439951171875002,0)" xlink:href="#al"/><use transform="matrix(0.008173828125000001,0,0,0.008173828125000001,30.839853515625002,0)" xlink:href="#am"/><use transform="matrix(0.008173828125000001,0,0,0.008173828125000001,34.975810546875,0)" xlink:href="#an"/><use transform="matrix(0.008173828125000001,0,0,0.008173828125000001,44.629101562500004,0)" xlink:href="#af"/><use transform="matrix(0.008173828125000001,0,0,0.008173828125000001,50.105566406250006,0)" xlink:href="#Z"/><use transform="matrix(0.008173828125000001,0,0,0.008173828125000001,54.15978515625001,0)" xlink:href="#ao"/><use transform="matrix(0.008173828125000001,0,0,0.008173828125000001,63.72316406250001,0)" xlink:href="#ap"/></g><path d="M180 0v-1490h190c0 262 1 526-3 784 217-279 467-523 702-784h249L716-845 1319 0h-225L585-716 370-489V0H180" id="aq"/><path d="M180 0v-1490h510c348 0 508 209 508 474 0 266-160 477-507 477H370V0H180zm190-706h312c236 0 327-133 327-310 0-176-91-307-329-307H370v617" id="ar"/><path d="M370-1490V0H180v-1490h190" id="as"/><g id="e"><use transform="matrix(0.008173828125000001,0,0,0.008173828125000001,0,0)" xlink:href="#aq"/><use transform="matrix(0.008173828125000001,0,0,0.008173828125000001,11.2471875,0)" xlink:href="#ar"/><use transform="matrix(0.008173828125000001,0,0,0.008173828125000001,21.9385546875,0)" xlink:href="#as"/><use transform="matrix(0.008173828125000001,0,0,0.008173828125000001,26.43416015625,0)" xlink:href="#ap"/></g><path d="M98-1322v-168h1126v168H757V0H567v-1322H98" id="at"/><path d="M158 0v-1490h180v865h22l478-493h223L593-638 1096 0H865L456-523 338-412V0H158" id="au"/><g id="f"><use transform="matrix(0.008173828125000001,0,0,0.008173828125000001,0,0)" xlink:href="#at"/><use transform="matrix(0.008173828125000001,0,0,0.008173828125000001,9.857636718750001,0)" xlink:href="#ak"/><use transform="matrix(0.008173828125000001,0,0,0.008173828125000001,16.159658203125,0)" xlink:href="#al"/><use transform="matrix(0.008173828125000001,0,0,0.008173828125000001,25.559560546875005,0)" xlink:href="#ao"/><use transform="matrix(0.008173828125000001,0,0,0.008173828125000001,35.12293945312501,0)" xlink:href="#au"/><use transform="matrix(0.008173828125000001,0,0,0.008173828125000001,44.310322265625004,0)" xlink:href="#Z"/><use transform="matrix(0.008173828125000001,0,0,0.008173828125000001,48.36454101562501,0)" xlink:href="#ae"/><use transform="matrix(0.008173828125000001,0,0,0.008173828125000001,58.254873046875005,0)" xlink:href="#ad"/></g><path d="M653-1490V0H466v-1314h-10L96-1047v-204l324-239h233" id="av"/><path d="M295 13c-75 0-135-60-135-135s60-135 135-135 135 60 135 135S370 13 295 13" id="aw"/><g id="g"><use transform="matrix(0.008173828125000001,0,0,0.008173828125000001,0,0)" xlink:href="#av"/><use transform="matrix(0.008173828125000001,0,0,0.008173828125000001,6.808798828125001,0)" xlink:href="#aw"/></g><path d="M180 0v-1490h510c348 0 508 194 508 460 0 198-88 351-276 417L1256 0h-220L726-579c-117 2-238 0-356 1V0H180zm190-747h312c235 0 327-108 327-283 0-177-92-293-329-293H370v576" id="ax"/><g id="h"><use transform="matrix(0.008173828125000001,0,0,0.008173828125000001,0,0)" xlink:href="#ax"/><use transform="matrix(0.008173828125000001,0,0,0.008173828125000001,10.527890625000001,0)" xlink:href="#ab"/><use transform="matrix(0.008173828125000001,0,0,0.008173828125000001,20.287441406250004,0)" xlink:href="#aj"/><use transform="matrix(0.008173828125000001,0,0,0.008173828125000001,30.324902343750004,0)" xlink:href="#am"/><use transform="matrix(0.008173828125000001,0,0,0.008173828125000001,34.37912109375,0)" xlink:href="#ah"/><use transform="matrix(0.008173828125000001,0,0,0.008173828125000001,44.277626953125,0)" xlink:href="#ap"/><use transform="matrix(0.008173828125000001,0,0,0.008173828125000001,53.11353515625,0)" xlink:href="#Z"/><use transform="matrix(0.008173828125000001,0,0,0.008173828125000001,57.16775390625,0)" xlink:href="#aj"/><use transform="matrix(0.008173828125000001,0,0,0.008173828125000001,67.20521484375,0)" xlink:href="#ae"/></g><g id="i"><use transform="matrix(0.008173828125000001,0,0,0.008173828125000001,0,0)" xlink:href="#ax"/><use transform="matrix(0.008173828125000001,0,0,0.008173828125000001,10.691367187500001,0)" xlink:href="#al"/><use transform="matrix(0.008173828125000001,0,0,0.008173828125000001,20.091269531250003,0)" xlink:href="#af"/><use transform="matrix(0.008173828125000001,0,0,0.008173828125000001,25.404257812500003,0)" xlink:href="#ab"/><use transform="matrix(0.008173828125000001,0,0,0.008173828125000001,35.163808593750005,0)" xlink:href="#ap"/></g><path d="M154 0v-137l495-537c165-179 249-281 249-418 0-156-121-253-280-253-170 0-278 110-278 278H158c0-264 200-443 465-443 266 0 455 183 455 416 0 161-73 288-336 568L416-179v12h687V0H154" id="ay"/><g id="j"><use transform="matrix(0.008173828125000001,0,0,0.008173828125000001,0,0)" xlink:href="#ay"/><use transform="matrix(0.008173828125000001,0,0,0.008173828125000001,10.209111328125001,0)" xlink:href="#aw"/></g><g id="k"><use transform="matrix(0.008173828125000001,0,0,0.008173828125000001,0,0)" xlink:href="#ac"/><use transform="matrix(0.008173828125000001,0,0,0.008173828125000001,10.413457031250001,0)" xlink:href="#aa"/><use transform="matrix(0.008173828125000001,0,0,0.008173828125000001,19.494580078125004,0)" xlink:href="#ab"/><use transform="matrix(0.008173828125000001,0,0,0.008173828125000001,29.254130859375003,0)" xlink:href="#ak"/><use transform="matrix(0.008173828125000001,0,0,0.008173828125000001,35.55615234375,0)" xlink:href="#al"/><use transform="matrix(0.008173828125000001,0,0,0.008173828125000001,44.9560546875,0)" xlink:href="#ad"/><use transform="matrix(0.008173828125000001,0,0,0.008173828125000001,55.2223828125,0)" xlink:href="#ab"/></g><g id="l"><use transform="matrix(0.008173828125000001,0,0,0.008173828125000001,0,0)" xlink:href="#ax"/><use transform="matrix(0.008173828125000001,0,0,0.008173828125000001,10.527890625000001,0)" xlink:href="#ab"/><use transform="matrix(0.008173828125000001,0,0,0.008173828125000001,20.287441406250004,0)" xlink:href="#ap"/><use transform="matrix(0.008173828125000001,0,0,0.008173828125000001,29.123349609375005,0)" xlink:href="#ai"/><use transform="matrix(0.008173828125000001,0,0,0.008173828125000001,39.37333007812501,0)" xlink:href="#aj"/><use transform="matrix(0.008173828125000001,0,0,0.008173828125000001,49.41079101562501,0)" xlink:href="#ae"/><use transform="matrix(0.008173828125000001,0,0,0.008173828125000001,59.301123046875006,0)" xlink:href="#ap"/><use transform="matrix(0.008173828125000001,0,0,0.008173828125000001,68.13703125,0)" xlink:href="#ab"/></g><path d="M158 0v-1118h175l1 205c55-151 181-225 313-225 147 0 245 90 285 228 53-141 190-228 352-228 194 0 352 125 352 384V0h-181v-749c0-161-105-225-225-225-151 0-243 103-243 244V0H807v-767c0-124-93-207-219-207-131 0-250 92-250 270V0H158" id="az"/><g id="m"><use transform="matrix(0.008173828125000001,0,0,0.008173828125000001,0,0)" xlink:href="#af"/><use transform="matrix(0.008173828125000001,0,0,0.008173828125000001,5.4764648437500005,0)" xlink:href="#Z"/><use transform="matrix(0.008173828125000001,0,0,0.008173828125000001,9.530683593750002,0)" xlink:href="#az"/><use transform="matrix(0.008173828125000001,0,0,0.008173828125000001,24.194531250000004,0)" xlink:href="#ab"/><use transform="matrix(0.008173828125000001,0,0,0.008173828125000001,33.95408203125,0)" xlink:href="#ap"/></g><g id="n"><use transform="matrix(0.008173828125000001,0,0,0.008173828125000001,0,0)" xlink:href="#as"/><use transform="matrix(0.008173828125000001,0,0,0.008173828125000001,4.495605468750001,0)" xlink:href="#ae"/><use transform="matrix(0.008173828125000001,0,0,0.008173828125000001,14.3859375,0)" xlink:href="#af"/><use transform="matrix(0.008173828125000001,0,0,0.008173828125000001,19.69892578125,0)" xlink:href="#ab"/><use transform="matrix(0.008173828125000001,0,0,0.008173828125000001,29.458476562500003,0)" xlink:href="#ad"/><use transform="matrix(0.008173828125000001,0,0,0.008173828125000001,39.724804687500004,0)" xlink:href="#ak"/><use transform="matrix(0.008173828125000001,0,0,0.008173828125000001,46.026826171875,0)" xlink:href="#al"/><use transform="matrix(0.008173828125000001,0,0,0.008173828125000001,55.426728515625,0)" xlink:href="#af"/><use transform="matrix(0.008173828125000001,0,0,0.008173828125000001,60.903193359375,0)" xlink:href="#Z"/><use transform="matrix(0.008173828125000001,0,0,0.008173828125000001,64.957412109375,0)" xlink:href="#aj"/><use transform="matrix(0.008173828125000001,0,0,0.008173828125000001,74.994873046875,0)" xlink:href="#ae"/><use transform="matrix(0.008173828125000001,0,0,0.008173828125000001,84.885205078125,0)" xlink:href="#ap"/></g><path d="M180 0v-1490h224l606 953c40 63 108 177 176 312-27-437-7-821-13-1265h190V0h-226C860-448 622-778 356-1262c27 476 11 792 15 1262H180" id="aA"/><path d="M763 24c-353 0-583-224-583-531v-983h190v968c0 214 149 370 393 370 243 0 391-156 391-370v-968h190v983c0 307-230 531-581 531" id="aB"/><g id="o"><use transform="matrix(0.008173828125000001,0,0,0.008173828125000001,0,0)" xlink:href="#aA"/><use transform="matrix(0.008173828125000001,0,0,0.008173828125000001,12.612216796875002,0)" xlink:href="#Y"/><use transform="matrix(0.008173828125000001,0,0,0.008173828125000001,22.077509765625003,0)" xlink:href="#aB"/></g><path d="M798-719v166H144v-166h654" id="aC"/><use transform="matrix(0.008173828125000001,0,0,0.008173828125000001,0,0)" xlink:href="#aC" id="p"/><g id="q"><use transform="matrix(0.008173828125000001,0,0,0.008173828125000001,0,0)" xlink:href="#aA"/><use transform="matrix(0.008173828125000001,0,0,0.008173828125000001,12.612216796875002,0)" xlink:href="#al"/><use transform="matrix(0.008173828125000001,0,0,0.008173828125000001,22.012119140625003,0)" xlink:href="#af"/><use transform="matrix(0.008173828125000001,0,0,0.008173828125000001,27.488583984375005,0)" xlink:href="#ah"/><use transform="matrix(0.008173828125000001,0,0,0.008173828125000001,37.387089843750005,0)" xlink:href="#ak"/><use transform="matrix(0.008173828125000001,0,0,0.008173828125000001,43.68911132812501,0)" xlink:href="#al"/><use transform="matrix(0.008173828125000001,0,0,0.008173828125000001,53.08901367187501,0)" xlink:href="#am"/></g><g id="r"><use transform="matrix(0.008173828125000001,0,0,0.008173828125000001,0,0)" xlink:href="#Y"/><use transform="matrix(0.008173828125000001,0,0,0.008173828125000001,9.465292968750001,0)" xlink:href="#al"/><use transform="matrix(0.008173828125000001,0,0,0.008173828125000001,18.865195312500003,0)" xlink:href="#ae"/><use transform="matrix(0.008173828125000001,0,0,0.008173828125000001,28.755527343750003,0)" xlink:href="#ad"/><use transform="matrix(0.008173828125000001,0,0,0.008173828125000001,39.021855468750005,0)" xlink:href="#ah"/><use transform="matrix(0.008173828125000001,0,0,0.008173828125000001,48.920361328125004,0)" xlink:href="#al"/><use transform="matrix(0.008173828125000001,0,0,0.008173828125000001,58.320263671875004,0)" xlink:href="#ad"/><use transform="matrix(0.008173828125000001,0,0,0.008173828125000001,68.58659179687501,0)" xlink:href="#ab"/></g><path d="M577 24c-279 0-473-224-473-580 0-354 195-576 474-576 218 0 287 134 324 193h14v-551h180V0H922v-173h-20C865-111 790 24 577 24zm27-161c203 0 314-172 314-421 0-247-108-413-314-413-212 0-317 181-317 413 0 235 108 421 317 421" id="aD"/><g id="s"><use transform="matrix(0.008173828125000001,0,0,0.008173828125000001,0,0)" xlink:href="#aB"/><use transform="matrix(0.008173828125000001,0,0,0.008173828125000001,12.456914062500001,0)" xlink:href="#ae"/><use transform="matrix(0.008173828125000001,0,0,0.008173828125000001,22.34724609375,0)" xlink:href="#aD"/><use transform="matrix(0.008173828125000001,0,0,0.008173828125000001,32.597226562500005,0)" xlink:href="#ab"/><use transform="matrix(0.008173828125000001,0,0,0.008173828125000001,42.356777343750004,0)" xlink:href="#ak"/><use transform="matrix(0.008173828125000001,0,0,0.008173828125000001,48.658798828125,0)" xlink:href="#ap"/><use transform="matrix(0.008173828125000001,0,0,0.008173828125000001,57.49470703125,0)" xlink:href="#af"/><use transform="matrix(0.008173828125000001,0,0,0.008173828125000001,63.05291015625,0)" xlink:href="#al"/><use transform="matrix(0.008173828125000001,0,0,0.008173828125000001,72.45281250000001,0)" xlink:href="#ae"/><use transform="matrix(0.008173828125000001,0,0,0.008173828125000001,82.34314453125,0)" xlink:href="#aD"/><use transform="matrix(0.008173828125000001,0,0,0.008173828125000001,92.593125,0)" xlink:href="#Z"/><use transform="matrix(0.008173828125000001,0,0,0.008173828125000001,96.64734375,0)" xlink:href="#ae"/><use transform="matrix(0.008173828125000001,0,0,0.008173828125000001,106.53767578125,0)" xlink:href="#ad"/></g><path d="M645 0H180v-1490h484c435 0 692 280 692 742 0 466-257 748-711 748zM370-168h263c363 0 539-218 539-580 0-358-176-574-521-574H370v1154" id="aE"/><g id="t"><use transform="matrix(0.008173828125000001,0,0,0.008173828125000001,0,0)" xlink:href="#aE"/><use transform="matrix(0.008173828125000001,0,0,0.008173828125000001,12.08091796875,0)" xlink:href="#al"/><use transform="matrix(0.008173828125000001,0,0,0.008173828125000001,21.4808203125,0)" xlink:href="#af"/><use transform="matrix(0.008173828125000001,0,0,0.008173828125000001,27.039023437500003,0)" xlink:href="#al"/></g><g id="u"><use transform="matrix(0.008173828125000001,0,0,0.008173828125000001,0,0)" xlink:href="#ag"/><use transform="matrix(0.008173828125000001,0,0,0.008173828125000001,10.740410156250002,0)" xlink:href="#af"/><use transform="matrix(0.008173828125000001,0,0,0.008173828125000001,16.053398437500004,0)" xlink:href="#aj"/><use transform="matrix(0.008173828125000001,0,0,0.008173828125000001,26.090859375000004,0)" xlink:href="#ak"/><use transform="matrix(0.008173828125000001,0,0,0.008173828125000001,32.392880859375005,0)" xlink:href="#al"/><use transform="matrix(0.008173828125000001,0,0,0.008173828125000001,41.792783203125005,0)" xlink:href="#ad"/><use transform="matrix(0.008173828125000001,0,0,0.008173828125000001,52.059111328125006,0)" xlink:href="#ab"/></g><path d="M783 20c-382 0-661-292-661-764 0-473 279-766 661-766 302 0 548 182 601 489h-190c-42-204-217-313-411-313-268 0-476 208-476 590 0 381 209 588 476 588 195 0 369-110 411-313h190c-52 303-296 489-601 489" id="aF"/><g id="v"><use transform="matrix(0.008173828125000001,0,0,0.008173828125000001,0,0)" xlink:href="#aF"/><use transform="matrix(0.008173828125000001,0,0,0.008173828125000001,12.228046875000002,0)" xlink:href="#aj"/><use transform="matrix(0.008173828125000001,0,0,0.008173828125000001,22.265507812500008,0)" xlink:href="#az"/><use transform="matrix(0.008173828125000001,0,0,0.008173828125000001,36.92935546875,0)" xlink:href="#ai"/><use transform="matrix(0.008173828125000001,0,0,0.008173828125000001,47.17933593750001,0)" xlink:href="#am"/><use transform="matrix(0.008173828125000001,0,0,0.008173828125000001,51.2335546875,0)" xlink:href="#Z"/><use transform="matrix(0.008173828125000001,0,0,0.008173828125000001,55.28777343750001,0)" xlink:href="#al"/><use transform="matrix(0.008173828125000001,0,0,0.008173828125000001,64.68767578125001,0)" xlink:href="#ae"/><use transform="matrix(0.008173828125000001,0,0,0.008173828125000001,74.5780078125,0)" xlink:href="#ao"/><use transform="matrix(0.008173828125000001,0,0,0.008173828125000001,84.14138671875,0)" xlink:href="#ab"/></g><path d="M135 0v-1490h980v253H440v416h609v249H440V0H135" id="aG"/><path d="M513 14c-232 0-385-159-385-421v-711h300v659c0 139 76 222 202 222 127 0 217-86 217-234v-647h301V0H864l-4-232C797-74 683 14 513 14" id="aH"/><path d="M428-647V0H128v-1118h283l4 231c63-156 176-245 348-245 232 0 384 159 384 421V0H847v-659c0-139-76-222-202-222-128 0-217 86-217 234" id="aI"/><path d="M628 22C291 22 81-210 81-554c0-346 210-578 547-578 265 0 455 142 497 372l-279 52c-25-116-99-188-215-188-160 0-244 139-244 341 0 200 84 341 244 341 116 0 193-74 217-195l279 51C1085-123 896 22 628 22" id="aJ"/><path d="M683-1118v229H474v562c0 71 29 104 102 104 23 0 73-7 95-13l43 225C647 9 580 16 520 16 296 16 174-96 174-301v-588H20v-229h154v-266h300v266h209" id="aK"/><path d="M128 0v-1118h300V0H128zm150-1264c-91 0-165-68-165-154 0-85 74-154 165-154 90 0 165 69 165 154 0 86-75 154-165 154" id="aL"/><path d="M628 22C291 22 81-210 81-554c0-346 210-578 547-578 336 0 547 232 547 578 0 344-211 576-547 576zm0-236c160 0 242-146 242-341 0-197-82-341-242-341S387-753 387-555c0 195 81 341 241 341" id="aM"/><path d="M440 22C227 22 68-92 68-313c0-250 202-322 422-343 195-21 271-24 271-105 0-95-63-149-175-149-116 0-187 57-211 129l-275-46c57-194 237-305 487-305 240 0 474 108 474 379V0H777v-155h-10C713-51 605 22 440 22zm85-211c140 0 238-93 238-211v-121c-37 26-156 42-222 51-111 16-185 59-185 149 0 87 70 132 169 132" id="aN"/><path d="M428-1490V0H128v-1490h300" id="aO"/><g id="w"><use transform="matrix(0.009765625,0,0,0.009765625,0,0)" xlink:href="#aG"/><use transform="matrix(0.009765625,0,0,0.009765625,11.064453125,0)" xlink:href="#aH"/><use transform="matrix(0.009765625,0,0,0.009765625,23.515625,0)" xlink:href="#aI"/><use transform="matrix(0.009765625,0,0,0.009765625,35.966796875,0)" xlink:href="#aJ"/><use transform="matrix(0.009765625,0,0,0.009765625,47.734375,0)" xlink:href="#aK"/><use transform="matrix(0.009765625,0,0,0.009765625,55.05859375,0)" xlink:href="#aL"/><use transform="matrix(0.009765625,0,0,0.009765625,60.478515625,0)" xlink:href="#aM"/><use transform="matrix(0.009765625,0,0,0.009765625,72.744140625,0)" xlink:href="#aI"/><use transform="matrix(0.009765625,0,0,0.009765625,85.1953125,0)" xlink:href="#aN"/><use transform="matrix(0.009765625,0,0,0.009765625,96.806640625,0)" xlink:href="#aO"/></g><path d="M135 0v-1490h581c339 0 533 192 533 485 0 204-94 351-264 424L1302 0H964L680-532H440V0H135zm305-779h220c186 0 274-77 274-226 0-150-88-233-275-233H440v459" id="aP"/><path d="M633 22C291 22 81-200 81-553c0-345 210-579 537-579 292 0 525 185 525 567v84H378c7 183 109 277 260 277 105 0 184-46 216-132l272 51C1071-99 893 22 633 22zM380-669h474c-15-146-94-237-233-237-143 0-229 99-241 237" id="aQ"/><path d="M1163 418H863v-597h-10C812-89 719 19 537 19 279 19 81-185 81-557c0-382 206-575 454-575 190 0 278 113 318 202h15v-188h295V418zM629-222c153 0 240-134 240-336 0-203-86-334-240-334-158 0-240 138-240 334 0 197 84 336 240 336" id="aR"/><path d="M128 0v-1118h290v195h12c54-169 184-238 367-200v268c-27-8-86-15-130-15-138 0-239 95-239 234V0H128" id="aS"/><path d="M128 0v-1118h278l12 217c60-163 185-234 319-234 143 0 236 81 288 251 63-172 205-251 359-251 205 0 357 138 357 381V0h-301v-697c0-126-76-187-177-187-114 0-184 79-184 196V0H789v-705c0-109-72-179-174-179-106 0-187 74-187 208V0H128" id="aT"/><path d="M572 22C302 22 117-98 78-306l279-48c29 105 101 156 224 156 114 0 185-48 185-115 0-118-228-130-337-155-215-49-322-150-322-317 0-215 187-347 470-347 265 0 424 116 466 298l-266 47c-24-76-87-130-196-130-98 0-174 46-174 113 0 56 38 95 144 117l201 40c216 44 320 143 320 302 0 220-207 367-500 367" id="aU"/><g id="x"><use transform="matrix(0.009765625,0,0,0.009765625,0,0)" xlink:href="#aP"/><use transform="matrix(0.009765625,0,0,0.009765625,12.890625,0)" xlink:href="#aQ"/><use transform="matrix(0.009765625,0,0,0.009765625,24.8046875,0)" xlink:href="#aR"/><use transform="matrix(0.009765625,0,0,0.009765625,37.412109375,0)" xlink:href="#aH"/><use transform="matrix(0.009765625,0,0,0.009765625,49.86328125,0)" xlink:href="#aL"/><use transform="matrix(0.009765625,0,0,0.009765625,55.283203125,0)" xlink:href="#aS"/><use transform="matrix(0.009765625,0,0,0.009765625,62.939453125,0)" xlink:href="#aQ"/><use transform="matrix(0.009765625,0,0,0.009765625,74.853515625,0)" xlink:href="#aT"/><use transform="matrix(0.009765625,0,0,0.009765625,93.10546875,0)" xlink:href="#aQ"/><use transform="matrix(0.009765625,0,0,0.009765625,105.01953125,0)" xlink:href="#aI"/><use transform="matrix(0.009765625,0,0,0.009765625,117.470703125,0)" xlink:href="#aK"/><use transform="matrix(0.009765625,0,0,0.009765625,124.6484375,0)" xlink:href="#aU"/></g><g id="y"><use transform="matrix(0.008173828125000001,0,0,0.008173828125000001,0,0)" xlink:href="#aF"/><use transform="matrix(0.008173828125000001,0,0,0.008173828125000001,12.228046875000002,0)" xlink:href="#aj"/><use transform="matrix(0.008173828125000001,0,0,0.008173828125000001,22.265507812500008,0)" xlink:href="#az"/><use transform="matrix(0.008173828125000001,0,0,0.008173828125000001,36.92935546875,0)" xlink:href="#az"/><use transform="matrix(0.008173828125000001,0,0,0.008173828125000001,51.593203124999995,0)" xlink:href="#aj"/><use transform="matrix(0.008173828125000001,0,0,0.008173828125000001,61.6306640625,0)" xlink:href="#ae"/></g><path d="M1096 418H916v-591h-14C865-111 790 24 577 24c-279 0-473-224-473-580 0-354 195-576 474-576 218 0 287 134 324 193h20v-179h174V418zM604-137c203 0 314-172 314-421 0-247-108-413-314-413-212 0-317 181-317 413 0 235 108 421 317 421" id="aV"/><g id="z"><use transform="matrix(0.008173828125000001,0,0,0.008173828125000001,0,0)" xlink:href="#as"/><use transform="matrix(0.008173828125000001,0,0,0.008173828125000001,4.495605468750001,0)" xlink:href="#ae"/><use transform="matrix(0.008173828125000001,0,0,0.008173828125000001,14.3859375,0)" xlink:href="#aV"/><use transform="matrix(0.008173828125000001,0,0,0.008173828125000001,24.63591796875,0)" xlink:href="#ah"/><use transform="matrix(0.008173828125000001,0,0,0.008173828125000001,34.534423828125,0)" xlink:href="#Z"/><use transform="matrix(0.008173828125000001,0,0,0.008173828125000001,38.588642578125004,0)" xlink:href="#ak"/><use transform="matrix(0.008173828125000001,0,0,0.008173828125000001,44.612753906250006,0)" xlink:href="#ab"/><use transform="matrix(0.008173828125000001,0,0,0.008173828125000001,54.372304687500005,0)" xlink:href="#ap"/></g><path d="M126 0v-134l627-806v-11H146v-167h839v143L376-178v11h629V0H126" id="aW"/><g id="A"><use transform="matrix(0.008173828125000001,0,0,0.008173828125000001,0,0)" xlink:href="#ar"/><use transform="matrix(0.008173828125000001,0,0,0.008173828125000001,10.601455078125001,0)" xlink:href="#ab"/><use transform="matrix(0.008173828125000001,0,0,0.008173828125000001,20.361005859375002,0)" xlink:href="#ak"/><use transform="matrix(0.008173828125000001,0,0,0.008173828125000001,26.663027343750002,0)" xlink:href="#ap"/><use transform="matrix(0.008173828125000001,0,0,0.008173828125000001,35.498935546875,0)" xlink:href="#aj"/><use transform="matrix(0.008173828125000001,0,0,0.008173828125000001,45.536396484375004,0)" xlink:href="#ae"/><use transform="matrix(0.008173828125000001,0,0,0.008173828125000001,55.426728515625,0)" xlink:href="#al"/><use transform="matrix(0.008173828125000001,0,0,0.008173828125000001,64.826630859375,0)" xlink:href="#am"/><use transform="matrix(0.008173828125000001,0,0,0.008173828125000001,68.880849609375,0)" xlink:href="#Z"/><use transform="matrix(0.008173828125000001,0,0,0.008173828125000001,72.93506835937501,0)" xlink:href="#aW"/><use transform="matrix(0.008173828125000001,0,0,0.008173828125000001,82.17966796875001,0)" xlink:href="#al"/><use transform="matrix(0.008173828125000001,0,0,0.008173828125000001,91.57957031250001,0)" xlink:href="#af"/><use transform="matrix(0.008173828125000001,0,0,0.008173828125000001,97.05603515625,0)" xlink:href="#Z"/><use transform="matrix(0.008173828125000001,0,0,0.008173828125000001,101.11025390625001,0)" xlink:href="#aj"/><use transform="matrix(0.008173828125000001,0,0,0.008173828125000001,111.14771484375001,0)" xlink:href="#ae"/></g><path d="M180 0v-1490h901v168H370v510h643v168H370V0H180" id="aX"/><path d="M784 20c-382 0-662-292-662-764 0-473 280-766 662-766s660 293 660 766c0 282-99 499-260 629l192 255h-198L1049-33C969 2 880 20 784 20zm-62-486h198l156 205c112-98 183-261 183-483 0-383-209-590-475-590-268 0-477 208-477 590 0 380 209 588 477 588 54 0 106-9 154-25" id="aY"/><g id="B"><use transform="matrix(0.008173828125000001,0,0,0.008173828125000001,0,0)" xlink:href="#aX"/><use transform="matrix(0.008173828125000001,0,0,0.008173828125000001,8.361826171875002,0)" xlink:href="#ac"/><use transform="matrix(0.008173828125000001,0,0,0.008173828125000001,19.339277343750005,0)" xlink:href="#aY"/><use transform="matrix(0.008173828125000001,0,0,0.008173828125000001,32.13949218750001,0)" xlink:href="#ap"/></g><g id="C"><use transform="matrix(0.008173828125000001,0,0,0.008173828125000001,0,0)" xlink:href="#ax"/><use transform="matrix(0.008173828125000001,0,0,0.008173828125000001,10.527890625000001,0)" xlink:href="#ab"/><use transform="matrix(0.008173828125000001,0,0,0.008173828125000001,20.287441406250004,0)" xlink:href="#ai"/><use transform="matrix(0.008173828125000001,0,0,0.008173828125000001,30.537421875000007,0)" xlink:href="#aj"/><use transform="matrix(0.008173828125000001,0,0,0.008173828125000001,40.57488281250001,0)" xlink:href="#ak"/><use transform="matrix(0.008173828125000001,0,0,0.008173828125000001,47.13846679687501,0)" xlink:href="#af"/><use transform="matrix(0.008173828125000001,0,0,0.008173828125000001,52.61493164062501,0)" xlink:href="#Z"/><use transform="matrix(0.008173828125000001,0,0,0.008173828125000001,56.669150390625006,0)" xlink:href="#ae"/><use transform="matrix(0.008173828125000001,0,0,0.008173828125000001,66.559482421875,0)" xlink:href="#ad"/></g><path d="M180 0v-1490h270l367 940c28 72 75 218 110 339 35-117 81-264 110-339l362-940h271V0h-187c2-448-5-837 7-1287-157 497-311 829-483 1287H842C666-458 514-784 354-1284c12 438 5 843 7 1284H180" id="aZ"/><g id="D"><use transform="matrix(0.008173828125000001,0,0,0.008173828125000001,0,0)" xlink:href="#aZ"/><use transform="matrix(0.008173828125000001,0,0,0.008173828125000001,15.121582031250002,0)" xlink:href="#ah"/><use transform="matrix(0.008173828125000001,0,0,0.008173828125000001,25.020087890625003,0)" xlink:href="#am"/><use transform="matrix(0.008173828125000001,0,0,0.008173828125000001,29.319521484375002,0)" xlink:href="#af"/><use transform="matrix(0.008173828125000001,0,0,0.008173828125000001,34.795986328125004,0)" xlink:href="#Z"/><use transform="matrix(0.008173828125000001,0,0,0.008173828125000001,38.850205078125,0)" xlink:href="#ai"/><use transform="matrix(0.008173828125000001,0,0,0.008173828125000001,49.100185546875004,0)" xlink:href="#am"/><use transform="matrix(0.008173828125000001,0,0,0.008173828125000001,53.154404296875,0)" xlink:href="#ab"/></g><g id="E"><use transform="matrix(0.008173828125000001,0,0,0.008173828125000001,0,0)" xlink:href="#aj"/><use transform="matrix(0.008173828125000001,0,0,0.008173828125000001,10.0374609375,0)" xlink:href="#ak"/></g><path d="M784 20c-382 0-662-292-662-764 0-473 280-766 662-766s660 293 660 766c0 472-278 764-660 764zm0-176c266 0 475-207 475-588 0-383-209-590-475-590-268 0-477 208-477 590 0 380 209 588 477 588" id="ba"/><path d="M338-670V0H158v-1490h180v566c73-149 190-208 336-208 226 0 379 139 379 422V0H872v-695c0-172-96-275-252-275-161 0-282 109-282 300" id="bb"/><g id="F"><use transform="matrix(0.008173828125000001,0,0,0.008173828125000001,0,0)" xlink:href="#ba"/><use transform="matrix(0.008173828125000001,0,0,0.008173828125000001,12.800214843750002,0)" xlink:href="#az"/><use transform="matrix(0.008173828125000001,0,0,0.008173828125000001,27.464062500000004,0)" xlink:href="#Z"/><use transform="matrix(0.008173828125000001,0,0,0.008173828125000001,31.518281250000005,0)" xlink:href="#aC"/><use transform="matrix(0.008173828125000001,0,0,0.008173828125000001,39.21802734375001,0)" xlink:href="#aF"/><use transform="matrix(0.008173828125000001,0,0,0.008173828125000001,51.44607421875001,0)" xlink:href="#bb"/><use transform="matrix(0.008173828125000001,0,0,0.008173828125000001,61.34458007812501,0)" xlink:href="#al"/><use transform="matrix(0.008173828125000001,0,0,0.008173828125000001,70.74448242187502,0)" xlink:href="#ae"/><use transform="matrix(0.008173828125000001,0,0,0.008173828125000001,80.63481445312503,0)" xlink:href="#ae"/><use transform="matrix(0.008173828125000001,0,0,0.008173828125000001,90.52514648437501,0)" xlink:href="#ab"/><use transform="matrix(0.008173828125000001,0,0,0.008173828125000001,100.28469726562501,0)" xlink:href="#am"/></g><path d="M409 0L70-1118h191c89 329 165 560 243 925 75-353 154-601 240-925h192c85 325 161 564 235 922 77-354 157-598 244-922h191L1267 0h-179c-86-307-176-590-250-913C763-588 675-308 588 0H409" id="bc"/><g id="G"><use transform="matrix(0.008173828125000001,0,0,0.008173828125000001,0,0)" xlink:href="#aq"/><use transform="matrix(0.008173828125000001,0,0,0.008173828125000001,10.2009375,0)" xlink:href="#bc"/><use transform="matrix(0.008173828125000001,0,0,0.008173828125000001,23.597841796875002,0)" xlink:href="#aj"/><use transform="matrix(0.008173828125000001,0,0,0.008173828125000001,33.635302734375,0)" xlink:href="#am"/><use transform="matrix(0.008173828125000001,0,0,0.008173828125000001,37.68952148437501,0)" xlink:href="#ab"/><use transform="matrix(0.008173828125000001,0,0,0.008173828125000001,47.449072265625006,0)" xlink:href="#aD"/><use transform="matrix(0.008173828125000001,0,0,0.008173828125000001,57.69905273437501,0)" xlink:href="#ad"/><use transform="matrix(0.008173828125000001,0,0,0.008173828125000001,67.96538085937502,0)" xlink:href="#ab"/></g><path d="M180 0v-1490h528c311 0 458 177 458 395 0 191-114 278-244 313v14c139 9 302 137 302 371 0 225-148 397-499 397H180zm190-168h350c232 0 321-102 321-231 0-149-120-277-311-277H370v508zm0-668h328c160 0 286-101 286-255 0-129-87-231-280-231H370v486" id="bd"/><g id="H"><use transform="matrix(0.008173828125000001,0,0,0.008173828125000001,0,0)" xlink:href="#bd"/><use transform="matrix(0.008173828125000001,0,0,0.008173828125000001,10.952929687500001,0)" xlink:href="#al"/><use transform="matrix(0.008173828125000001,0,0,0.008173828125000001,20.352832031250003,0)" xlink:href="#ap"/><use transform="matrix(0.008173828125000001,0,0,0.008173828125000001,29.188740234375004,0)" xlink:href="#ab"/><use transform="matrix(0.008173828125000001,0,0,0.008173828125000001,38.948291015625,0)" xlink:href="#ap"/></g><path d="M180 0v-1490h908v168H370v486h669v168H370v500h727V0H180" id="be"/><g id="I"><use transform="matrix(0.008173828125000001,0,0,0.008173828125000001,0,0)" xlink:href="#be"/><use transform="matrix(0.008173828125000001,0,0,0.008173828125000001,10.061982421875001,0)" xlink:href="#ap"/><use transform="matrix(0.008173828125000001,0,0,0.008173828125000001,18.897890625000002,0)" xlink:href="#ao"/><use transform="matrix(0.008173828125000001,0,0,0.008173828125000001,28.624746093750005,0)" xlink:href="#al"/><use transform="matrix(0.008173828125000001,0,0,0.008173828125000001,38.024648437500005,0)" xlink:href="#am"/><use transform="matrix(0.008173828125000001,0,0,0.008173828125000001,42.07886718750001,0)" xlink:href="#al"/><use transform="matrix(0.008173828125000001,0,0,0.008173828125000001,51.47876953125001,0)" xlink:href="#af"/><use transform="matrix(0.008173828125000001,0,0,0.008173828125000001,56.95523437500002,0)" xlink:href="#Z"/><use transform="matrix(0.008173828125000001,0,0,0.008173828125000001,61.00945312500001,0)" xlink:href="#aj"/><use transform="matrix(0.008173828125000001,0,0,0.008173828125000001,71.04691406250001,0)" xlink:href="#ae"/></g><path d="M677 24c-213 0-288-135-325-197h-20V0H158v-1490h180v551h14c37-59 106-193 324-193 279 0 474 222 474 576 0 356-194 580-473 580zm-27-161c209 0 317-186 317-421 0-232-105-413-317-413-206 0-314 166-314 413 0 249 111 421 314 421" id="bf"/><g id="J"><use transform="matrix(0.008173828125000001,0,0,0.008173828125000001,0,0)" xlink:href="#aF"/><use transform="matrix(0.008173828125000001,0,0,0.008173828125000001,12.228046875000002,0)" xlink:href="#bb"/><use transform="matrix(0.008173828125000001,0,0,0.008173828125000001,22.126552734375004,0)" xlink:href="#al"/><use transform="matrix(0.008173828125000001,0,0,0.008173828125000001,31.526455078125004,0)" xlink:href="#af"/><use transform="matrix(0.008173828125000001,0,0,0.008173828125000001,37.002919921875005,0)" xlink:href="#bf"/><use transform="matrix(0.008173828125000001,0,0,0.008173828125000001,47.25290039062501,0)" xlink:href="#aj"/><use transform="matrix(0.008173828125000001,0,0,0.008173828125000001,57.29036132812501,0)" xlink:href="#af"/></g><g id="K"><use transform="matrix(0.008173828125000001,0,0,0.008173828125000001,0,0)" xlink:href="#aE"/><use transform="matrix(0.008173828125000001,0,0,0.008173828125000001,12.08091796875,0)" xlink:href="#al"/><use transform="matrix(0.008173828125000001,0,0,0.008173828125000001,21.4808203125,0)" xlink:href="#ap"/><use transform="matrix(0.008173828125000001,0,0,0.008173828125000001,30.316728515624998,0)" xlink:href="#bb"/><use transform="matrix(0.008173828125000001,0,0,0.008173828125000001,40.215234375,0)" xlink:href="#bf"/><use transform="matrix(0.008173828125000001,0,0,0.008173828125000001,50.465214843750005,0)" xlink:href="#aj"/><use transform="matrix(0.008173828125000001,0,0,0.008173828125000001,60.66615234375001,0)" xlink:href="#al"/><use transform="matrix(0.008173828125000001,0,0,0.008173828125000001,70.06605468750001,0)" xlink:href="#ak"/><use transform="matrix(0.008173828125000001,0,0,0.008173828125000001,76.09016601562502,0)" xlink:href="#aD"/><use transform="matrix(0.008173828125000001,0,0,0.008173828125000001,86.34014648437501,0)" xlink:href="#ap"/></g><g id="L"><use transform="matrix(0.008173828125000001,0,0,0.008173828125000001,0,0)" xlink:href="#ag"/><use transform="matrix(0.008173828125000001,0,0,0.008173828125000001,10.740410156250002,0)" xlink:href="#ah"/><use transform="matrix(0.008173828125000001,0,0,0.008173828125000001,20.638916015625004,0)" xlink:href="#ai"/><use transform="matrix(0.008173828125000001,0,0,0.008173828125000001,30.888896484375003,0)" xlink:href="#ai"/><use transform="matrix(0.008173828125000001,0,0,0.008173828125000001,41.138876953125006,0)" xlink:href="#aj"/><use transform="matrix(0.008173828125000001,0,0,0.008173828125000001,51.17633789062501,0)" xlink:href="#ak"/><use transform="matrix(0.008173828125000001,0,0,0.008173828125000001,57.73992187500001,0)" xlink:href="#af"/></g><g id="M"><use transform="matrix(0.008173828125000001,0,0,0.008173828125000001,0,0)" xlink:href="#bf"/><use transform="matrix(0.008173828125000001,0,0,0.008173828125000001,10.249980468750001,0)" xlink:href="#aj"/><use transform="matrix(0.008173828125000001,0,0,0.008173828125000001,20.287441406250004,0)" xlink:href="#af"/><use transform="matrix(0.008173828125000001,0,0,0.008173828125000001,25.763906250000005,0)" xlink:href="#bb"/></g><path d="M458 0L52-1490h194c108 439 233 855 324 1313 92-459 221-873 331-1313h216c110 438 234 854 330 1307 92-455 216-869 323-1307h196L1558 0h-221l-256-944c-26-95-50-200-73-331-22 122-44 223-73 331L680 0H458" id="bg"/><g id="N"><use transform="matrix(0.008173828125000001,0,0,0.008173828125000001,0,0)" xlink:href="#bg"/><use transform="matrix(0.008173828125000001,0,0,0.008173828125000001,15.644707031250004,0)" xlink:href="#ab"/><use transform="matrix(0.008173828125000001,0,0,0.008173828125000001,25.404257812500006,0)" xlink:href="#bf"/><use transform="matrix(0.008173828125000001,0,0,0.008173828125000001,35.65423828125001,0)" xlink:href="#ap"/><use transform="matrix(0.008173828125000001,0,0,0.008173828125000001,44.49014648437501,0)" xlink:href="#Z"/><use transform="matrix(0.008173828125000001,0,0,0.008173828125000001,48.54436523437501,0)" xlink:href="#af"/><use transform="matrix(0.008173828125000001,0,0,0.008173828125000001,53.85735351562501,0)" xlink:href="#ab"/></g><path d="M580 20c-295 0-476-179-476-409 0-189 123-290 294-416-104-125-173-226-173-362 0-197 144-337 365-337 224 0 362 144 362 321 0 185-174 312-306 405l319 387c38-75 61-165 61-267h173c0 208-62 332-120 406L1287 0h-217L967-124C868-27 716 20 580 20zm279-273L507-675l-51 38c-123 91-167 162-167 254 0 147 113 246 278 246 107 0 210-41 292-116zM538-908l97-72c54-40 136-101 136-206 0-95-68-163-176-163-113 0-189 74-189 181 0 90 53 164 132 260" id="bh"/><use transform="matrix(0.008173828125000001,0,0,0.008173828125000001,0,0)" xlink:href="#bh" id="O"/><g id="P"><use transform="matrix(0.008173828125000001,0,0,0.008173828125000001,0,0)" xlink:href="#aZ"/><use transform="matrix(0.008173828125000001,0,0,0.008173828125000001,15.121582031250002,0)" xlink:href="#aj"/><use transform="matrix(0.008173828125000001,0,0,0.008173828125000001,25.15904296875,0)" xlink:href="#bf"/><use transform="matrix(0.008173828125000001,0,0,0.008173828125000001,35.409023437500004,0)" xlink:href="#Z"/><use transform="matrix(0.008173828125000001,0,0,0.008173828125000001,39.4632421875,0)" xlink:href="#am"/><use transform="matrix(0.008173828125000001,0,0,0.008173828125000001,43.517460937500005,0)" xlink:href="#ab"/></g><g id="Q"><use transform="matrix(0.008173828125000001,0,0,0.008173828125000001,0,0)" xlink:href="#ac"/><use transform="matrix(0.008173828125000001,0,0,0.008173828125000001,11.549619140625001,0)" xlink:href="#ai"/><use transform="matrix(0.008173828125000001,0,0,0.008173828125000001,21.799599609375,0)" xlink:href="#ai"/></g><path d="M135 0v-1490h340l471 754c59 97 122 210 187 365-32-387-14-721-19-1119h312V0h-341C855-382 627-689 427-1113c32 420 16 695 20 1113H135" id="bi"/><path d="M818-733v240H140v-240h678" id="bj"/><g id="R"><use transform="matrix(0.009765625,0,0,0.009765625,0,0)" xlink:href="#bi"/><use transform="matrix(0.009765625,0,0,0.009765625,15.244140625,0)" xlink:href="#aM"/><use transform="matrix(0.009765625,0,0,0.009765625,27.509765625,0)" xlink:href="#aI"/><use transform="matrix(0.009765625,0,0,0.009765625,39.9609375,0)" xlink:href="#bj"/><use transform="matrix(0.009765625,0,0,0.009765625,49.31640625,0)" xlink:href="#aG"/><use transform="matrix(0.009765625,0,0,0.009765625,60.380859375,0)" xlink:href="#aH"/><use transform="matrix(0.009765625,0,0,0.009765625,72.83203125,0)" xlink:href="#aI"/><use transform="matrix(0.009765625,0,0,0.009765625,85.283203125,0)" xlink:href="#aJ"/><use transform="matrix(0.009765625,0,0,0.009765625,97.05078125,0)" xlink:href="#aK"/><use transform="matrix(0.009765625,0,0,0.009765625,104.375,0)" xlink:href="#aL"/><use transform="matrix(0.009765625,0,0,0.009765625,109.794921875,0)" xlink:href="#aM"/><use transform="matrix(0.009765625,0,0,0.009765625,122.060546875,0)" xlink:href="#aI"/><use transform="matrix(0.009765625,0,0,0.009765625,134.51171875,0)" xlink:href="#aN"/><use transform="matrix(0.009765625,0,0,0.009765625,146.123046875,0)" xlink:href="#aO"/></g><g id="S"><use transform="matrix(0.008173828125000001,0,0,0.008173828125000001,0,0)" xlink:href="#ag"/><use transform="matrix(0.008173828125000001,0,0,0.008173828125000001,10.740410156250002,0)" xlink:href="#ab"/><use transform="matrix(0.008173828125000001,0,0,0.008173828125000001,20.499960937500003,0)" xlink:href="#ao"/><use transform="matrix(0.008173828125000001,0,0,0.008173828125000001,30.063339843750004,0)" xlink:href="#ah"/><use transform="matrix(0.008173828125000001,0,0,0.008173828125000001,39.96184570312501,0)" xlink:href="#ak"/><use transform="matrix(0.008173828125000001,0,0,0.008173828125000001,45.98595703125001,0)" xlink:href="#ab"/></g><path d="M180 0v-1490h190v644h782v-644h190V0h-190v-678H370V0H180" id="bk"/><g id="T"><use transform="matrix(0.008173828125000001,0,0,0.008173828125000001,0,0)" xlink:href="#bk"/><use transform="matrix(0.008173828125000001,0,0,0.008173828125000001,12.440566406250001,0)" xlink:href="#Z"/><use transform="matrix(0.008173828125000001,0,0,0.008173828125000001,16.494785156250003,0)" xlink:href="#ad"/><use transform="matrix(0.008173828125000001,0,0,0.008173828125000001,26.761113281250005,0)" xlink:href="#bb"/><use transform="matrix(0.008173828125000001,0,0,0.008173828125000001,36.659619140625004,0)" xlink:href="#am"/><use transform="matrix(0.008173828125000001,0,0,0.008173828125000001,40.795576171875,0)" xlink:href="#an"/></g><g id="U"><use transform="matrix(0.008173828125000001,0,0,0.008173828125000001,0,0)" xlink:href="#ac"/><use transform="matrix(0.008173828125000001,0,0,0.008173828125000001,10.413457031250001,0)" xlink:href="#aa"/><use transform="matrix(0.008173828125000001,0,0,0.008173828125000001,19.739794921875003,0)" xlink:href="#al"/><use transform="matrix(0.008173828125000001,0,0,0.008173828125000001,29.139697265625003,0)" xlink:href="#Z"/><use transform="matrix(0.008173828125000001,0,0,0.008173828125000001,33.19391601562501,0)" xlink:href="#am"/><use transform="matrix(0.008173828125000001,0,0,0.008173828125000001,37.24813476562501,0)" xlink:href="#al"/><use transform="matrix(0.008173828125000001,0,0,0.008173828125000001,46.64803710937501,0)" xlink:href="#bf"/><use transform="matrix(0.008173828125000001,0,0,0.008173828125000001,56.898017578125014,0)" xlink:href="#am"/><use transform="matrix(0.008173828125000001,0,0,0.008173828125000001,60.952236328125004,0)" xlink:href="#ab"/></g><g id="V"><use transform="matrix(0.008173828125000001,0,0,0.008173828125000001,0,0)" xlink:href="#aF"/><use transform="matrix(0.008173828125000001,0,0,0.008173828125000001,12.228046875000002,0)" xlink:href="#aj"/><use transform="matrix(0.008173828125000001,0,0,0.008173828125000001,22.265507812500008,0)" xlink:href="#az"/><use transform="matrix(0.008173828125000001,0,0,0.008173828125000001,36.92935546875,0)" xlink:href="#ai"/><use transform="matrix(0.008173828125000001,0,0,0.008173828125000001,47.17933593750001,0)" xlink:href="#am"/><use transform="matrix(0.008173828125000001,0,0,0.008173828125000001,51.2335546875,0)" xlink:href="#Z"/><use transform="matrix(0.008173828125000001,0,0,0.008173828125000001,55.28777343750001,0)" xlink:href="#al"/><use transform="matrix(0.008173828125000001,0,0,0.008173828125000001,64.68767578125001,0)" xlink:href="#ae"/><use transform="matrix(0.008173828125000001,0,0,0.008173828125000001,74.5780078125,0)" xlink:href="#af"/></g><g id="W"><use transform="matrix(0.008173828125000001,0,0,0.008173828125000001,0,0)" xlink:href="#ax"/><use transform="matrix(0.008173828125000001,0,0,0.008173828125000001,10.527890625000001,0)" xlink:href="#ab"/><use transform="matrix(0.008173828125000001,0,0,0.008173828125000001,20.287441406250004,0)" xlink:href="#am"/><use transform="matrix(0.008173828125000001,0,0,0.008173828125000001,24.341660156250004,0)" xlink:href="#al"/><use transform="matrix(0.008173828125000001,0,0,0.008173828125000001,33.7415625,0)" xlink:href="#Z"/><use transform="matrix(0.008173828125000001,0,0,0.008173828125000001,37.795781250000005,0)" xlink:href="#bf"/><use transform="matrix(0.008173828125000001,0,0,0.008173828125000001,48.04576171875001,0)" xlink:href="#am"/><use transform="matrix(0.008173828125000001,0,0,0.008173828125000001,52.099980468750005,0)" xlink:href="#ab"/></g><g id="X"><use transform="matrix(0.008173828125000001,0,0,0.008173828125000001,0,0)" xlink:href="#ag"/><use transform="matrix(0.008173828125000001,0,0,0.008173828125000001,10.740410156250002,0)" xlink:href="#ao"/><use transform="matrix(0.008173828125000001,0,0,0.008173828125000001,20.467265625000003,0)" xlink:href="#al"/><use transform="matrix(0.008173828125000001,0,0,0.008173828125000001,29.867167968750003,0)" xlink:href="#am"/><use transform="matrix(0.008173828125000001,0,0,0.008173828125000001,33.92138671875,0)" xlink:href="#al"/><use transform="matrix(0.008173828125000001,0,0,0.008173828125000001,43.3212890625,0)" xlink:href="#bf"/><use transform="matrix(0.008173828125000001,0,0,0.008173828125000001,53.57126953125,0)" xlink:href="#am"/><use transform="matrix(0.008173828125000001,0,0,0.008173828125000001,57.62548828125,0)" xlink:href="#ab"/></g></defs></g></svg>